<svg id="address" xmlns="http://www.w3.org/2000/svg" width="33" height="33" viewBox="0 0 33 33">
  <path id="Path_922" data-name="Path 922" d="M306.645,260a.645.645,0,1,0,.645.645A.645.645,0,0,0,306.645,260Zm0,0" transform="translate(-286.277 -243.242)" fill="#55b364"/>
  <path id="Path_923" data-name="Path 923" d="M6.586,23.834.14,31.955A.644.644,0,0,0,.645,33H32.356a.644.644,0,0,0,.5-1.045l-6.445-8.121a.644.644,0,0,0-.5-.244H20.265l4.82-7.56a10.313,10.313,0,1,0-17.169,0l4.82,7.56H7.09A.645.645,0,0,0,6.586,23.834ZM4.179,28.939h3.9l-2.2,2.771H1.98Zm9.379-4.061,1.767,2.771h-4.58l2.2-2.771Zm5.885,0h.614l2.2,2.771h-4.58Zm3.836,4.061,2.2,2.771H7.522l2.2-2.771Zm3.845,2.771-2.2-2.771h3.9l2.2,2.771ZM27.8,27.65H23.9l-2.2-2.771h3.9ZM8.992,15.32a9.023,9.023,0,1,1,15.017,0L24,15.331,16.5,27.1,9,15.331ZM11.3,24.879,9.1,27.65H5.2l2.2-2.771Zm0,0" transform="translate(-0.001 0)" fill="#55b364"/>
  <path id="Path_924" data-name="Path 924" d="M162.445,72.891A6.445,6.445,0,1,0,156,66.445,6.446,6.446,0,0,0,162.445,72.891Zm0-11.6a5.156,5.156,0,1,1-5.156,5.156A5.162,5.162,0,0,1,162.445,61.289Zm0,0" transform="translate(-145.945 -56.133)" fill="#55b364"/>
  <path id="Path_925" data-name="Path 925" d="M249.356,292.78a.644.644,0,0,0-.885.219l-2.382,3.952a.645.645,0,1,0,1.1.665l2.382-3.952A.644.644,0,0,0,249.356,292.78Zm0,0" transform="translate(-230.141 -273.823)" fill="#55b364"/>
</svg>
