<svg xmlns="http://www.w3.org/2000/svg" width="168.868" height="82.696" viewBox="0 0 168.868 82.696"><defs><style>.a,.b{fill:#26272e;}.b{font-size:41px;font-family:Rubik-Light, Rubik;font-weight:300;}.c{letter-spacing:-0.01em;}</style></defs><g transform="translate(0.002 7.5)"><g transform="translate(-0.002 -7.5)"><path class="a" d="M121.239,128.435c-4.7,0-8.377-1.376-10.94-4.03s-3.879-6.19-4.053-10.6c-.032-.867-.046-2.215-.046-4.127s0-3.32.046-4.209c.174-4.42,1.541-7.983,4.053-10.605s6.245-4.03,10.94-4.03a17.46,17.46,0,0,1,7.96,1.692,12.54,12.54,0,0,1,7.121,10.706v.119a3.127,3.127,0,0,1-1.11,2.416,3.361,3.361,0,0,1-2.192.793h-2.293a3.365,3.365,0,0,1-2.205-.766,3.636,3.636,0,0,1-1.165-1.981v-.06a5.685,5.685,0,0,0-1.894-3.567,7.388,7.388,0,0,0-4.214-1.009c-2.852,0-5.8.793-6.006,6.685-.032.789-.046,2.04-.046,3.723s0,2.967.046,3.815c.211,5.85,3.154,6.639,6.006,6.639a7.421,7.421,0,0,0,4.2-1.018,5.6,5.6,0,0,0,1.907-3.521v-.055a3.668,3.668,0,0,1,1.169-1.981,3.366,3.366,0,0,1,2.2-.761h2.293a3.347,3.347,0,0,1,2.187.789,3.132,3.132,0,0,1,1.114,2.421v.119a12.54,12.54,0,0,1-7.121,10.7A17.46,17.46,0,0,1,121.239,128.435Z" transform="translate(-57.506 -45.744)"/><path class="a" d="M114.652,125.53q-3.21-3.329-3.416-9.1c-.032-.825-.046-2.173-.046-4.035s0-3.274.046-4.127q.225-5.777,3.416-9.1t9.289-3.324a15.167,15.167,0,0,1,6.919,1.444,10.248,10.248,0,0,1,5.869,8.78.835.835,0,0,1-.3.665,1.087,1.087,0,0,1-.711.252h-2.293a1.114,1.114,0,0,1-.734-.229,1.458,1.458,0,0,1-.413-.779,7.787,7.787,0,0,0-2.82-4.952,9.5,9.5,0,0,0-5.5-1.421q-7.978,0-8.3,8.895c-.032.825-.046,2.091-.046,3.806s0,3.008.046,3.9q.316,8.845,8.3,8.849a9.535,9.535,0,0,0,5.5-1.421,7.691,7.691,0,0,0,2.843-4.906,1.44,1.44,0,0,1,.413-.779,1.091,1.091,0,0,1,.734-.229h2.293a1.064,1.064,0,0,1,.711.252.83.83,0,0,1,.3.665,10.248,10.248,0,0,1-5.869,8.78,15.167,15.167,0,0,1-6.923,1.444Q117.838,128.854,114.652,125.53Z" transform="translate(-60.208 -48.456)"/><path class="a" d="M187.8,128.469c-4.585,0-8.207-1.275-10.807-3.787s-4-6.231-4.127-11.05q-.048-1.376-.046-3.961c0-1.724,0-3.017.046-3.934.138-4.75,1.573-8.464,4.264-11a14.979,14.979,0,0,1,10.683-3.842c4.411,0,8,1.293,10.665,3.847s4.094,6.272,4.237,11.032c.06,1.834.092,3.1.092,3.92s-.032,2.086-.1,3.971c-.138,4.81-1.518,8.524-4.127,11.036S192.371,128.469,187.8,128.469Zm0-29.252a5.681,5.681,0,0,0-4.264,1.563c-1.055,1.055-1.623,2.847-1.7,5.291-.032.853-.046,2.059-.046,3.6s0,2.714.041,3.59c.078,2.453.642,4.223,1.678,5.273a5.681,5.681,0,0,0,4.287,1.545,5.583,5.583,0,0,0,4.237-1.545c1.027-1.041,1.628-2.834,1.724-5.287.06-1.8.092-3,.092-3.576s-.032-1.834-.092-3.59c-.1-2.444-.679-4.237-1.729-5.3A5.565,5.565,0,0,0,187.8,99.216Z" transform="translate(-93.581 -45.778)"/><path class="a" d="M181.275,125.721q-3.26-3.141-3.439-9.468c-.032-.917-.046-2.219-.046-3.9s0-2.967.046-3.851q.179-6.24,3.553-9.445t9.1-3.21q5.727,0,9.078,3.21t3.53,9.445q.087,2.655.092,3.851c0,.761-.032,2.063-.092,3.9q-.188,6.327-3.416,9.468t-9.17,3.141Q184.53,128.862,181.275,125.721Zm15.085-2.889q2.2-2.228,2.384-6.809.087-2.751.092-3.668,0-1.013-.092-3.668-.188-4.585-2.384-6.832a7.833,7.833,0,0,0-5.869-2.247,7.919,7.919,0,0,0-5.892,2.247q-2.224,2.247-2.361,6.832-.05,1.33-.046,3.668t.046,3.668q.138,4.585,2.338,6.809a8.917,8.917,0,0,0,11.784,0Z" transform="translate(-96.272 -48.464)"/><path class="a" d="M246.29,128.53a3.246,3.246,0,0,1-2.421-1.041,3.32,3.32,0,0,1-.88-2.293V95.243a3.388,3.388,0,0,1,.88-2.357,3.246,3.246,0,0,1,2.421-1.036h10.362c5.227,0,9.138,1.265,11.623,3.769s3.755,6.162,3.828,10.912c.028.889.046,2.118.046,3.613s0,2.751-.05,3.7a19.487,19.487,0,0,1-1.619,8,10.7,10.7,0,0,1-5.19,5.135,19.451,19.451,0,0,1-8.409,1.554Zm10.362-8.391a9.973,9.973,0,0,0,4.127-.679,3.178,3.178,0,0,0,1.632-1.655,11.825,11.825,0,0,0,.743-4.287c.06-1.834.092-2.953.092-3.375s-.032-1.568-.092-3.315c-.05-2.471-.564-4.209-1.527-5.195s-2.751-1.44-5.213-1.44h-4.539v19.945Z" transform="translate(-131.577 -46.297)"/><path class="a" d="M248.263,128.645a1.082,1.082,0,0,1-.275-.757V97.948a1.128,1.128,0,0,1,.275-.8.917.917,0,0,1,.734-.3h10.362q6.919,0,10,3.095t3.164,9.331c.027.885.046,2.077.046,3.576s0,2.705-.046,3.622a17.457,17.457,0,0,1-1.4,7.084,8.446,8.446,0,0,1-4.1,4.058,17.483,17.483,0,0,1-7.428,1.33H249A.954.954,0,0,1,248.263,128.645Zm11.1-3.508a11.907,11.907,0,0,0,5.112-.917,5.5,5.5,0,0,0,2.751-2.8,13.981,13.981,0,0,0,.945-5.135q.087-2.751.092-3.439t-.092-3.393q-.1-4.585-2.178-6.717t-6.855-2.132H252.3v24.53Z" transform="translate(-134.283 -49.003)"/><path class="a" d="M315.1,128.529a3.246,3.246,0,0,1-2.421-1.041,3.32,3.32,0,0,1-.88-2.293V95.242a3.389,3.389,0,0,1,.88-2.357,3.246,3.246,0,0,1,2.421-1.036h18.844a3.315,3.315,0,0,1,3.393,3.393v1.651a3.242,3.242,0,0,1-1.041,2.416,3.375,3.375,0,0,1-2.352.885H320.6v5.64h12.334a3.315,3.315,0,0,1,3.393,3.393v1.559a3.32,3.32,0,0,1-3.393,3.347H320.6v6.006h13.709a3.315,3.315,0,0,1,3.393,3.393v1.651a3.292,3.292,0,0,1-1.055,2.435,3.375,3.375,0,0,1-2.338.917Z" transform="translate(-168.837 -46.297)"/><path class="a" d="M317.063,128.644a1.082,1.082,0,0,1-.275-.757V97.947a1.128,1.128,0,0,1,.275-.8.917.917,0,0,1,.734-.3h18.844a1.027,1.027,0,0,1,1.1,1.1V99.6a.958.958,0,0,1-.3.734,1.146,1.146,0,0,1-.8.275h-15.63v10.225h14.626a1.027,1.027,0,0,1,1.1,1.1v1.559a1.041,1.041,0,0,1-.3.757,1.1,1.1,0,0,1-.8.3H321.011v10.591h16a1.027,1.027,0,0,1,1.1,1.1v1.651a1.009,1.009,0,0,1-.321.757,1.119,1.119,0,0,1-.779.3H317.8A.954.954,0,0,1,317.063,128.644Z" transform="translate(-171.538 -49.002)"/><path class="a" d="M3.468,40.348a3.434,3.434,0,0,1-2.687-5.58L18.506,12.517A3.439,3.439,0,0,1,23.889,16.8L6.159,39.05a3.43,3.43,0,0,1-2.691,1.3Z" transform="translate(-0.014 -2.636)"/><path class="a" d="M21.187,88.692a3.43,3.43,0,0,1-2.668-1.265L.774,65.688A3.439,3.439,0,0,1,6.1,61.337L23.841,83.079a3.439,3.439,0,0,1-2.659,5.612Z" transform="translate(0.002 -29.091)"/><path class="a" d="M64.151,87.92a1.834,1.834,0,0,1-1.44-.706L44.986,64.977a1.837,1.837,0,0,1,2.87-2.293L65.582,84.936a1.834,1.834,0,0,1-1.431,2.976Z" transform="translate(-24.141 -30.131)"/><path class="a" d="M46.423,136.269A1.834,1.834,0,0,1,45,133.275l17.744-21.742a1.835,1.835,0,0,1,2.843,2.32L47.844,135.6A1.834,1.834,0,0,1,46.423,136.269Z" transform="translate(-24.144 -56.591)"/><text class="b" transform="translate(48.538 38)"><tspan class="c" x="0" y="0">A</tspan><tspan y="0">UX</tspan></text></g></g></svg>