<svg xmlns="http://www.w3.org/2000/svg" viewBox="0 0 368.44 164.35"><defs><style>.cls-1{isolation:isolate;}.cls-2{opacity:0;mix-blend-mode:multiply;}.cls-3{fill:#1d1d1b;}</style></defs><g class="cls-1"><g id="Layer_2" data-name="Layer 2"><g id="Layer_2-2" data-name="Layer 2"><path d="M136.15,164.35c-10.25,0-18.27-3-23.86-8.79s-8.46-13.5-8.84-23.11c-.07-1.9-.1-4.84-.1-9s0-7.24.1-9.18c.38-9.64,3.35-17.41,8.84-23.13s13.61-8.79,23.86-8.79A38.1,38.1,0,0,1,153.51,86,27.35,27.35,0,0,1,169,109.39v.26a6.78,6.78,0,0,1-2.43,5.27,7.31,7.31,0,0,1-4.77,1.73h-5A7.32,7.32,0,0,1,152,115a7.93,7.93,0,0,1-2.54-4.32l0-.13c-.85-3.85-2.24-6.46-4.12-7.78-2.1-1.46-5.19-2.2-9.19-2.2-6.22,0-12.64,1.73-13.11,14.58-.06,1.73-.09,4.45-.09,8.12s0,6.47.09,8.32c.46,12.76,6.89,14.48,13.11,14.48,3.94,0,7-.75,9.16-2.22,1.91-1.32,3.31-3.9,4.16-7.68l0-.12a7.94,7.94,0,0,1,2.54-4.32,7.35,7.35,0,0,1,4.81-1.66h5a7.32,7.32,0,0,1,4.77,1.72,6.83,6.83,0,0,1,2.43,5.28v.26a27.38,27.38,0,0,1-15.53,23.35A38.1,38.1,0,0,1,136.15,164.35Z"/><path d="M118.9,152.1q-7-7.26-7.45-19.85c-.07-1.8-.1-4.74-.1-8.8s0-7.14.1-9q.49-12.6,7.45-19.85t20.25-7.25a33.08,33.08,0,0,1,15.1,3.15,22.35,22.35,0,0,1,12.8,19.15,1.82,1.82,0,0,1-.65,1.45,2.37,2.37,0,0,1-1.55.55h-5a2.43,2.43,0,0,1-1.6-.5,3.18,3.18,0,0,1-.9-1.7q-1.71-7.71-6.15-10.8t-12-3.1q-17.4,0-18.1,19.4c-.07,1.8-.1,4.56-.1,8.3s0,6.56.1,8.5q.69,19.29,18.1,19.3,7.5,0,12-3.1t6.2-10.7a3.14,3.14,0,0,1,.9-1.7,2.38,2.38,0,0,1,1.6-.5h5a2.32,2.32,0,0,1,1.55.55,1.81,1.81,0,0,1,.65,1.45,22.35,22.35,0,0,1-12.8,19.15,33.08,33.08,0,0,1-15.1,3.15Q125.85,159.35,118.9,152.1Z"/><path d="M205.64,164.35c-10,0-17.89-2.78-23.57-8.25s-8.72-13.6-9-24.11c-.07-2-.11-4.88-.11-8.64s0-6.57.11-8.58c.3-10.36,3.43-18.46,9.3-24s13.67-8.38,23.29-8.38,17.46,2.82,23.26,8.39,8.94,13.68,9.24,24.06c.14,4,.2,6.76.2,8.55s-.06,4.55-.2,8.66c-.3,10.49-3.32,18.59-9,24.07S215.62,164.35,205.64,164.35Zm0-63.8c-4,0-7,1.12-9.29,3.42s-3.55,6.2-3.71,11.53c-.06,1.86-.1,4.49-.1,7.85s0,5.92.1,7.83c.16,5.35,1.39,9.21,3.66,11.5s5.3,3.37,9.34,3.37,7-1.1,9.25-3.37,3.54-6.18,3.76-11.53c.13-3.91.19-6.55.19-7.8s-.06-4-.19-7.83c-.22-5.33-1.49-9.23-3.78-11.57S209.61,100.55,205.64,100.55Z"/><path d="M185.54,152.5q-7.09-6.85-7.5-20.65c-.06-2-.1-4.84-.1-8.5s0-6.47.1-8.4q.41-13.61,7.75-20.6t19.85-7q12.51,0,19.8,7t7.7,20.6c.14,3.86.2,6.66.2,8.4s-.06,4.5-.2,8.5q-.39,13.8-7.45,20.65t-20.05,6.85Q192.65,159.35,185.54,152.5Zm32.9-6.3q4.8-4.86,5.2-14.85c.14-4,.2-6.67.2-8s-.06-4.14-.2-8q-.39-10-5.2-14.9t-12.8-4.9q-8,0-12.85,4.9t-5.15,14.9c-.06,1.93-.1,4.6-.1,8s0,6,.1,8q.3,10,5.11,14.85c3.19,3.23,7.5,4.85,12.89,4.85S215.25,149.43,218.44,146.2Z"/><path d="M250.34,163.35a7.09,7.09,0,0,1-5.28-2.27,7.29,7.29,0,0,1-1.92-5V90.75a7.39,7.39,0,0,1,1.93-5.14,7.08,7.08,0,0,1,5.27-2.26h22.6c11.4,0,19.93,2.77,25.35,8.22s8.2,13.44,8.35,23.8c.07,1.94.1,4.62.1,7.88s0,6-.1,8.06c-.15,7-1.34,12.86-3.54,17.45A23.28,23.28,0,0,1,291.79,160c-4.79,2.28-10.79,3.39-18.35,3.39Zm22.6-18.3c3.91,0,6.94-.5,9-1.48a6.93,6.93,0,0,0,3.56-3.61,25.79,25.79,0,0,0,1.62-9.35c.13-4,.19-6.44.19-7.36s-.06-3.42-.19-7.23c-.11-5.39-1.23-9.18-3.33-11.33s-5.95-3.14-11.38-3.14h-9.9v43.5Z"/><path d="M248.74,157.7a2.36,2.36,0,0,1-.6-1.65V90.75a2.46,2.46,0,0,1,.6-1.75,2.06,2.06,0,0,1,1.6-.65h22.6q15.1,0,21.8,6.75t6.9,20.35q.11,2.89.1,7.8c0,3.26,0,5.9-.1,7.9q-.19,9.49-3.05,15.45a18.38,18.38,0,0,1-8.95,8.85q-6.09,2.9-16.2,2.9h-23.1A2.09,2.09,0,0,1,248.74,157.7Zm24.2-7.65q7,0,11.15-2a11.9,11.9,0,0,0,6-6.1q1.86-4.16,2.05-11.25c.14-4,.2-6.5.2-7.5s-.06-3.54-.2-7.4q-.19-10-4.75-14.65t-14.95-4.65h-14.9v53.5Z"/><path d="M319.14,163.35a7.09,7.09,0,0,1-5.28-2.27,7.29,7.29,0,0,1-1.92-5V90.75a7.39,7.39,0,0,1,1.93-5.14,7.06,7.06,0,0,1,5.27-2.26h41.1a7.23,7.23,0,0,1,7.4,7.4v3.6a7,7,0,0,1-2.26,5.27,7.37,7.37,0,0,1-5.14,1.93h-29.1v12.3H358a7.21,7.21,0,0,1,7.4,7.4v3.4A7.23,7.23,0,0,1,358,132h-26.9v13.1H361a7.23,7.23,0,0,1,7.4,7.4v3.6a7.17,7.17,0,0,1-2.29,5.31,7.39,7.39,0,0,1-5.11,2Z"/><path d="M317.54,157.7a2.36,2.36,0,0,1-.6-1.65V90.75a2.46,2.46,0,0,1,.6-1.75,2.06,2.06,0,0,1,1.6-.65h41.1a2.24,2.24,0,0,1,2.4,2.4v3.6A2.06,2.06,0,0,1,362,96a2.46,2.46,0,0,1-1.75.6h-34.1v22.3H358a2.24,2.24,0,0,1,2.4,2.4v3.4a2.23,2.23,0,0,1-.65,1.65A2.36,2.36,0,0,1,358,127h-31.9v23.1H361a2.24,2.24,0,0,1,2.4,2.4v3.6a2.16,2.16,0,0,1-.7,1.65,2.41,2.41,0,0,1-1.7.65h-41.9A2.09,2.09,0,0,1,317.54,157.7Z"/><path d="M108.72,62.46a1.73,1.73,0,0,1-.54-1.26l.18-1L131.13,1.8A2.61,2.61,0,0,1,133.74,0h3.06a2.61,2.61,0,0,1,2.61,1.8l22.77,58.41.18,1a1.85,1.85,0,0,1-1.8,1.8h-1.8a1.88,1.88,0,0,1-1.31-.45,2.51,2.51,0,0,1-.67-.9l-5.58-14.4H119.34l-5.58,14.4a2.55,2.55,0,0,1-.68.9,1.85,1.85,0,0,1-1.3.45H110A1.73,1.73,0,0,1,108.72,62.46ZM149,41.85,135.27,6.39,121.5,41.85Z"/><path d="M177.34,57.64q-6-6.24-6-19V2.07A2.13,2.13,0,0,1,171.9.58,1.9,1.9,0,0,1,173.34,0H175a2.07,2.07,0,0,1,1.53.54A2.07,2.07,0,0,1,177,2.07V38.88q0,9.9,4.59,14.76t13,4.86q8.28,0,12.87-4.86T212,38.88V2.07a2,2,0,0,1,.58-1.53A2.12,2.12,0,0,1,214.11,0h1.62a1.9,1.9,0,0,1,1.44.58,2.13,2.13,0,0,1,.54,1.49V38.61q0,12.87-5.94,19.08T194.58,63.9Q183.33,63.9,177.34,57.64Z"/><path d="M228.87,62.46a1.73,1.73,0,0,1-.54-1.26,2.07,2.07,0,0,1,.36-1.17l21-29.07L229.5,3a2.07,2.07,0,0,1-.36-1.17,1.73,1.73,0,0,1,.54-1.26A1.73,1.73,0,0,1,230.94,0h2.16a2.53,2.53,0,0,1,2.07,1.35l18.09,25.2L271,1.35A2.69,2.69,0,0,1,273.06,0h2a1.73,1.73,0,0,1,1.26.54,1.73,1.73,0,0,1,.54,1.26A2.15,2.15,0,0,1,276.48,3L256.59,31.14,277.47,60a2.07,2.07,0,0,1,.36,1.17A1.85,1.85,0,0,1,276,63h-2.16a2.69,2.69,0,0,1-2.07-1.35L253,35.64l-18.81,26A2.54,2.54,0,0,1,232.11,63h-2A1.73,1.73,0,0,1,228.87,62.46Z"/><g class="cls-2"><path class="cls-3" d="M7.53,69.36A7.51,7.51,0,0,1,1.67,57.18L40.33,8.65A7.5,7.5,0,0,1,52.07,18L13.4,66.53A7.48,7.48,0,0,1,7.53,69.36Z"/><path class="cls-3" d="M46.21,117.09a7.5,7.5,0,0,1-5.82-2.75L1.69,66.92a7.5,7.5,0,0,1,11.62-9.48L52,104.85a7.5,7.5,0,0,1-5.8,12.24Z"/><path class="cls-3" d="M87.26,113.14a4,4,0,0,1-3.14-1.5L45.46,63.11a4,4,0,0,1,6.26-5l38.66,48.53a4,4,0,0,1-.64,5.62A3.93,3.93,0,0,1,87.26,113.14Z"/><path class="cls-3" d="M48.59,160.88a4,4,0,0,1-3.1-6.53l38.7-47.41a4,4,0,1,1,6.2,5.06l-38.7,47.41A4,4,0,0,1,48.59,160.88Z"/></g><path d="M7.53,69.36A7.51,7.51,0,0,1,1.67,57.18L40.33,8.65A7.5,7.5,0,0,1,52.07,18L13.4,66.53A7.48,7.48,0,0,1,7.53,69.36Z"/><path d="M46.21,117.09a7.5,7.5,0,0,1-5.82-2.75L1.69,66.92a7.5,7.5,0,0,1,11.62-9.48L52,104.85a7.5,7.5,0,0,1-5.8,12.24Z"/><path d="M87.26,113.14a4,4,0,0,1-3.14-1.5L45.46,63.11a4,4,0,0,1,6.26-5l38.66,48.53a4,4,0,0,1-.64,5.62A3.93,3.93,0,0,1,87.26,113.14Z"/><path d="M48.59,160.88a4,4,0,0,1-3.1-6.53l38.7-47.41a4,4,0,1,1,6.2,5.06l-38.7,47.41A4,4,0,0,1,48.59,160.88Z"/></g></g></g></svg>