<svg xmlns="http://www.w3.org/2000/svg" width="79.085" height="73.813" viewBox="0 0 79.085 73.813"><defs><style>.a{fill:#5694e8;}</style></defs><g transform="translate(0 -15.999)"><g transform="translate(0 15.999)"><path class="a" d="M77.767,79.267H76.449V31.816a5.272,5.272,0,0,0-5.272-5.272H59.314V17.317a1.318,1.318,0,0,0-1.561-1.3L49.845,17.5l-1.318.248-11.743,2.2H29a2.636,2.636,0,0,0-2.636,2.636,6.59,6.59,0,0,0-6.032,3.954H7.909a5.272,5.272,0,0,0-5.272,5.272V79.267H1.318A1.318,1.318,0,0,0,0,80.586V84.54a5.272,5.272,0,0,0,5.272,5.272H73.813a5.272,5.272,0,0,0,5.272-5.272V80.586A1.318,1.318,0,0,0,77.767,79.267Zm-39.543-56.9,18.453-3.46V39.461L38.225,35.995Zm0,16.3,2.636.494v1.878H38.225ZM29,22.59h6.59V35.77H29Zm2.636,23.726V38.407h3.954v7.909Zm3.954,2.636v1.977a1.977,1.977,0,1,1-3.954,0V48.951ZM26.362,25.226v7.909a3.954,3.954,0,1,1,0-7.909ZM5.272,31.816A2.636,2.636,0,0,1,7.909,29.18H19.771a6.6,6.6,0,0,0,6.59,6.59A2.636,2.636,0,0,0,29,38.407V50.929a4.613,4.613,0,0,0,9.227,0V43.679h3.954A1.318,1.318,0,0,0,43.5,42.361v-2.7l14.256,2.673a1.361,1.361,0,0,0,.243.022,1.318,1.318,0,0,0,1.318-1.318V29.18H71.177a2.636,2.636,0,0,1,2.636,2.636V79.267H51.405a1.318,1.318,0,0,0-.932.385L48.224,81.9H30.862l-2.25-2.251a1.318,1.318,0,0,0-.932-.385H5.272ZM76.449,84.54a2.636,2.636,0,0,1-2.636,2.636H5.272A2.636,2.636,0,0,1,2.636,84.54V81.9h24.5l2.25,2.25a1.318,1.318,0,0,0,.932.386H48.769a1.318,1.318,0,0,0,.932-.386l2.25-2.25h24.5Z" transform="translate(0 -15.999)"/></g><g transform="translate(9.227 33.134)"><path class="a" d="M115.314,120h-5.272v2.636H114v35.588H58.636V122.636h6.59V120H57.318A1.318,1.318,0,0,0,56,121.318v38.225a1.318,1.318,0,0,0,1.318,1.318h58a1.318,1.318,0,0,0,1.318-1.318V121.318A1.318,1.318,0,0,0,115.314,120Z" transform="translate(-56 -120)"/></g><g transform="translate(38.325 76.409)"><rect class="a" width="3" height="4" transform="translate(-0.326 -0.41)"/></g><g transform="translate(18.837 59.52)"><rect class="a" width="2" height="2" transform="translate(0.162 0.479)"/></g><g transform="translate(24.035 59.52)"><rect class="a" width="40" height="2" transform="translate(-0.035 0.479)"/></g><g transform="translate(16.239 64.717)"><rect class="a" width="43" height="2" transform="translate(-0.238 0.282)"/></g></g></svg>