<svg xmlns="http://www.w3.org/2000/svg" width="52.389" height="51.544" viewBox="0 0 52.389 51.544"><defs><style>.a{fill:#55b364;}.b{fill:#151a6a;}</style></defs><g transform="translate(16.858 16.055)"><path class="a" d="M35.405,44.8h2.5V36.722H21.42a17.613,17.613,0,0,0,0,8.075h6.073a4.038,4.038,0,0,1,7.912,0Z" transform="translate(-20.951 -23.015)"/><path class="a" d="M49.392,39.952a4.044,4.044,0,0,1-3.952-3.23H42.931V44.8h16.49a17.644,17.644,0,0,0,0-8.075H53.347A4.043,4.043,0,0,1,49.392,39.952Z" transform="translate(-24.358 -23.015)"/><path class="a" d="M42.931,32.592H45.44a4.037,4.037,0,0,1,7.912,0h5.608A17.8,17.8,0,0,0,42.931,20.5Z" transform="translate(-24.358 -20.5)"/><ellipse class="a" cx="2.423" cy="2.423" rx="2.423" ry="2.423" transform="translate(8.075 20.167)"/><path class="a" d="M38.079,48.19h-2.5a4.038,4.038,0,0,1-7.912,0H22.049a17.8,17.8,0,0,0,16.03,12.092Z" transform="translate(-21.121 -24.793)"/><ellipse class="a" cx="2.423" cy="2.423" rx="2.423" ry="2.423" transform="translate(22.611 10.477)"/><path class="a" d="M42.931,48.19V60.282A17.8,17.8,0,0,0,58.959,48.19Z" transform="translate(-24.358 -24.793)"/><path class="a" d="M38.079,32.592V20.5a17.8,17.8,0,0,0-16.03,12.092Z" transform="translate(-21.121 -20.5)"/></g><path class="b" d="M36.574,14.289H9.535A2.535,2.535,0,0,0,7,16.824v6.76a2.535,2.535,0,0,0,2.535,2.535H23.308a.789.789,0,0,0,.169-.035l1.087,5.07a1.69,1.69,0,0,0,2.847.841l.973-.973,3.248,1.919a2.535,2.535,0,0,0,3.083-.39l.6-.6A2.535,2.535,0,0,0,35.6,28.7l-1.81-2.576h2.788a2.535,2.535,0,0,0,2.535-2.535v-6.76a2.535,2.535,0,0,0-2.535-2.535Zm-2.45,16.464-.6.6a.845.845,0,0,1-1.027.13l-3.813-2.253a.845.845,0,0,0-1.027.13L26.217,30.8l-1.663-7.757a.845.845,0,0,1,1-1L33.314,23.7l-1.436,1.436a.845.845,0,0,0-.093,1.084l2.431,3.448a.845.845,0,0,1-.092,1.083Zm3.3-7.169a.845.845,0,0,1-.845.845H34.831a1.674,1.674,0,0,0-1.158-2.38l-7.758-1.666a2.535,2.535,0,0,0-3.01,3.011l.221,1.033H9.535a.845.845,0,0,1-.845-.845v-6.76a.845.845,0,0,1,.845-.845H36.574a.845.845,0,0,1,.845.845Z" transform="translate(-1.93 -3.483)"/><path class="b" d="M40.714,1.5H3.535A2.535,2.535,0,0,0,1,4.035V36.811a2.535,2.535,0,0,0,2.535,2.535H40.714a2.535,2.535,0,0,0,2.535-2.535V4.035A2.535,2.535,0,0,0,40.714,1.5ZM2.69,4.035a.845.845,0,0,1,.845-.845H40.714a.845.845,0,0,1,.845.845V6.57H2.69ZM41.559,36.811a.845.845,0,0,1-.845.845H3.535a.845.845,0,0,1-.845-.845V8.26H41.559Z" transform="translate(-1 -1.5)"/></svg>