<svg xmlns="http://www.w3.org/2000/svg" width="79.438" height="79.436" viewBox="0 0 79.438 79.436"><defs><style>.a{fill:#5694e8;}</style></defs><path class="a" d="M34.815,39.19l10.592-4.237a1.324,1.324,0,1,0-.982-2.459L33.833,36.731a1.324,1.324,0,0,0,.491,2.554,1.307,1.307,0,0,0,.491-.1Z" transform="translate(10.691 10.496)"/><path class="a" d="M48.073,37.094l-13.24,5.3a1.324,1.324,0,0,0,.491,2.554,1.305,1.305,0,0,0,.491-.094l13.24-5.3a1.324,1.324,0,0,0-.982-2.46Z" transform="translate(11.015 11.987)"/><path class="a" d="M45.953,43.094l-6.62,2.648a1.324,1.324,0,0,0,.491,2.554,1.305,1.305,0,0,0,.491-.094l6.62-2.648a1.324,1.324,0,1,0-.982-2.46Z" transform="translate(12.473 13.931)"/><path class="a" d="M0,66.2a1.324,1.324,0,0,0,1.324,1.324h42.5a17.1,17.1,0,0,0,20.314-1.508L66.05,67.92a3.963,3.963,0,0,0,.764,4.508l5.844,5.844a3.972,3.972,0,1,0,5.617-5.617L72.43,66.812a3.963,3.963,0,0,0-4.508-.764L66.015,64.14a17.14,17.14,0,0,0-2.464-24.719V5.3a5.3,5.3,0,0,0-5.3-5.3H5.3A5.3,5.3,0,0,0,0,5.3V50.311a5.3,5.3,0,0,0,5.3,5.3h17.11a4.123,4.123,0,0,1-3.881,3.972H13.24a3.992,3.992,0,0,0-3.972,3.972,3.927,3.927,0,0,0,.244,1.324H1.324A1.324,1.324,0,0,0,0,66.2Zm70.558,2.488L76.4,74.53a1.324,1.324,0,0,1,0,1.872,1.357,1.357,0,0,1-1.872,0l-5.844-5.844a1.324,1.324,0,0,1-.02-1.842c.009-.008.021-.011.03-.02s.012-.021.02-.03a1.315,1.315,0,0,1,1.842.02ZM67.523,52.959A14.564,14.564,0,1,1,52.959,38.4,14.564,14.564,0,0,1,67.523,52.959Zm-38.4-15.888V14.564h5.3V37.071Zm5.3-25.155h-5.3a2.648,2.648,0,0,0-2.648,2.648V37.071H22.508V17.212a2.648,2.648,0,0,0-2.648-2.648h-5.3a2.648,2.648,0,0,0-2.648,2.648v19.86H7.944V7.944H55.607l.028,28.032a17.317,17.317,0,0,0-2.676-.229c-.448,0-.886.033-1.324.068V21.184a2.648,2.648,0,0,0-2.648-2.648h-5.3a2.648,2.648,0,0,0-2.648,2.648V37.071H37.071V14.564A2.648,2.648,0,0,0,34.423,11.916ZM14.564,37.071V17.212h5.3v19.86Zm31.786,0H43.691V21.184h5.3V36.228a17.1,17.1,0,0,0-2.637.843ZM5.3,2.648H58.255A2.648,2.648,0,0,1,60.9,5.3V37.705a17.173,17.173,0,0,0-2.648-1.116V7.944A2.648,2.648,0,0,0,55.607,5.3H7.944A2.648,2.648,0,0,0,5.3,7.944V37.071a2.648,2.648,0,0,0,2.648,2.648H41.977a17.329,17.329,0,0,0-2.555,2.648H2.648V5.3A2.648,2.648,0,0,1,5.3,2.648ZM2.648,50.311v-5.3H37.705a17.173,17.173,0,0,0-1.116,2.648H27.8a1.324,1.324,0,1,0,0,2.648h8.169a17.286,17.286,0,0,0-.225,2.648H5.3A2.648,2.648,0,0,1,2.648,50.311Zm22.431,5.3H35.972a17.124,17.124,0,0,0,1.1,3.972H23.647A8.067,8.067,0,0,0,25.079,55.607ZM11.916,63.551a1.294,1.294,0,0,1,.406-.944,1.27,1.27,0,0,1,.918-.38H38.479a17.281,17.281,0,0,0,2.089,2.648H13.24A1.324,1.324,0,0,1,11.916,63.551Z"/></svg>