<svg xmlns="http://www.w3.org/2000/svg" width="33" height="33" viewBox="0 0 33 33">
  <g id="correct" transform="translate(0)">
    <path id="Path_853" data-name="Path 853" d="M29.007,9.457a3.788,3.788,0,0,0-.593-4.377l-.494-.494a3.658,3.658,0,0,0-4.377-.593c-.982.55-3.061-.594-3.215-1.335A3.512,3.512,0,0,0,16.837,0l-.848.043a3.668,3.668,0,0,0-3.482,3.664c.067.847-1.385,1.474-2.229.923a3.707,3.707,0,0,0-5.242,0l-.406.406A3.75,3.75,0,0,0,4.1,9.61c.587.994.015,2.754-.949,2.991A3.786,3.786,0,0,0,0,16.223v.614a3.8,3.8,0,0,0,2.751,3.48c1.583.561,1.458,2.883,1.3,3.161a3.708,3.708,0,0,0,.583,4.487l.406.406a3.787,3.787,0,0,0,4.465.6,2.689,2.689,0,0,1,3.133,1.3A3.582,3.582,0,0,0,16.213,33h.528a3.754,3.754,0,0,0,3.579-2.62,2.57,2.57,0,0,1,3.346-1.364A3.982,3.982,0,0,0,28,28.333l.369-.369a3.707,3.707,0,0,0,0-5.242c-.65-.59.186-2.218.923-2.229A3.707,3.707,0,0,0,33,16.787v-.635a3.616,3.616,0,0,0-2.724-3.575C29.2,12.342,28.661,10.18,29.007,9.457Z" fill="#55b364"/>
    <path id="Path_854" data-name="Path 854" d="M139.914,178.274l-4.3-4.3a1.32,1.32,0,0,1,1.867-1.867l3.368,3.368,7.275-7.275a1.32,1.32,0,0,1,1.867,1.867l-8.209,8.209A1.508,1.508,0,0,1,139.914,178.274Z" transform="translate(-126.301 -156.736)" fill="#fff"/>
  </g>
</svg>
