<svg xmlns="http://www.w3.org/2000/svg" width="44.752" height="41.769" viewBox="0 0 44.752 41.769"><defs><style>.a{fill:#5694e8;}</style></defs><g transform="translate(0 -17.067)"><g transform="translate(0 17.067)"><path class="a" d="M41.768,17.067H2.984A2.988,2.988,0,0,0,0,20.051V43.172a.746.746,0,0,0,.746.746h43.26a.746.746,0,0,0,.746-.746V20.051A2.988,2.988,0,0,0,41.768,17.067ZM43.26,42.426H1.492V20.051a1.494,1.494,0,0,1,1.492-1.492H41.768a1.494,1.494,0,0,1,1.492,1.492Z" transform="translate(0 -17.067)"/></g><g transform="translate(0 42.426)"><path class="a" d="M44.006,307.2H.746a.746.746,0,0,0-.746.746v3.729a2.988,2.988,0,0,0,2.984,2.984H41.768a2.988,2.988,0,0,0,2.984-2.984v-3.729A.746.746,0,0,0,44.006,307.2Zm-.746,4.474a1.494,1.494,0,0,1-1.492,1.492H2.984a1.494,1.494,0,0,1-1.492-1.492v-2.983H43.26v2.983Z" transform="translate(0 -307.2)"/></g><g transform="translate(19.393 45.41)"><path class="a" d="M227.088,341.333h-4.475a.746.746,0,1,0,0,1.492h4.475a.746.746,0,1,0,0-1.492Z" transform="translate(-221.867 -341.333)"/></g><g transform="translate(2.984 20.05)"><path class="a" d="M72.173,51.2H34.88a.746.746,0,0,0-.746.746V74.322a.746.746,0,0,0,.746.746H72.173a.746.746,0,0,0,.746-.746V51.946A.746.746,0,0,0,72.173,51.2Zm-.746,22.376h-35.8V52.692h35.8V73.576Z" transform="translate(-34.134 -51.2)"/></g><g transform="translate(10.442 54.36)"><path class="a" d="M141.1,443.733H121.7a2.238,2.238,0,1,0,0,4.475H141.1a2.238,2.238,0,1,0,0-4.475Zm0,2.984H121.7a.746.746,0,1,1,0-1.492H141.1a.746.746,0,1,1,0,1.492Z" transform="translate(-119.467 -443.733)"/></g><g transform="translate(13.426 48.393)"><path class="a" d="M170.756,381.434c-2.475,0-3.729-1.757-3.729-5.221a.746.746,0,0,0-.746-.746h-7.459a.746.746,0,0,0-.746.746c0,3.465-1.255,5.221-3.729,5.221a.746.746,0,0,0,0,1.492h16.409a.746.746,0,0,0,0-1.492Zm-12.776,0a7.146,7.146,0,0,0,1.568-4.475h6.008a7.137,7.137,0,0,0,1.568,4.475Z" transform="translate(-153.601 -375.467)"/></g><g transform="translate(16.409 23.034)"><path class="a" d="M193.7,85.333a5.967,5.967,0,1,0,5.967,5.967A5.974,5.974,0,0,0,193.7,85.333Zm0,10.442a4.475,4.475,0,1,1,4.475-4.475A4.48,4.48,0,0,1,193.7,95.775Z" transform="translate(-187.733 -85.333)"/></g><g transform="translate(17.901 31.906)"><path class="a" d="M213.286,186.888a.743.743,0,0,0-.814.169,4.468,4.468,0,0,1-6.393,0,.746.746,0,0,0-1.278.522v7.537a.745.745,0,0,0,1.129.639l3.346-2.007,3.346,2.007a.744.744,0,0,0,.751.01.746.746,0,0,0,.378-.649v-7.537A.745.745,0,0,0,213.286,186.888Zm-1.027,6.91-2.6-1.56a.742.742,0,0,0-.767,0l-2.6,1.56v-4.7a6.09,6.09,0,0,0,5.967,0v4.7Z" transform="translate(-204.8 -186.833)"/></g><g transform="translate(19.393 26.017)"><path class="a" d="M224.85,119.467a2.983,2.983,0,0,0,0,5.967.746.746,0,0,0,0-1.492,1.492,1.492,0,1,1,1.492-1.492.746.746,0,1,0,1.492,0A2.986,2.986,0,0,0,224.85,119.467Z" transform="translate(-221.867 -119.467)"/></g><g transform="translate(21.63 35.714)"><path class="a" d="M248.213,230.4a.746.746,0,0,0-.746.746v1.492a.746.746,0,1,0,1.492,0v-1.492A.746.746,0,0,0,248.213,230.4Z" transform="translate(-247.467 -230.4)"/></g><g transform="translate(33.564 23.034)"><path class="a" d="M387.73,85.333h-2.983a.746.746,0,0,0,0,1.492h2.983a.746.746,0,1,0,0-1.492Z" transform="translate(-384.001 -85.333)"/></g><g transform="translate(29.089 23.034)"><path class="a" d="M335.038,85.333h-1.492a.746.746,0,0,0,0,1.492h1.492a.746.746,0,1,0,0-1.492Z" transform="translate(-332.8 -85.333)"/></g><g transform="translate(29.089 26.017)"><path class="a" d="M336.53,119.467h-2.983a.746.746,0,1,0,0,1.492h2.983a.746.746,0,0,0,0-1.492Z" transform="translate(-332.801 -119.467)"/></g><g transform="translate(35.056 26.017)"><path class="a" d="M403.3,119.467h-1.492a.746.746,0,0,0,0,1.492H403.3a.746.746,0,0,0,0-1.492Z" transform="translate(-401.067 -119.467)"/></g><g transform="translate(11.188 36.459)"><path class="a" d="M131.73,238.933h-2.983a.746.746,0,0,0,0,1.492h2.983a.746.746,0,1,0,0-1.492Z" transform="translate(-128.001 -238.933)"/></g><g transform="translate(6.713 36.459)"><path class="a" d="M79.038,238.933H77.546a.746.746,0,0,0,0,1.492h1.492a.746.746,0,0,0,0-1.492Z" transform="translate(-76.8 -238.933)"/></g><g transform="translate(6.713 39.443)"><path class="a" d="M80.529,273.067H77.546a.746.746,0,0,0,0,1.492h2.983a.746.746,0,0,0,0-1.492Z" transform="translate(-76.8 -273.067)"/></g><g transform="translate(12.68 39.443)"><path class="a" d="M147.3,273.067h-1.492a.746.746,0,1,0,0,1.492H147.3a.746.746,0,0,0,0-1.492Z" transform="translate(-145.067 -273.067)"/></g><g transform="translate(29.835 31.984)"><path class="a" d="M349.539,191.463a2.986,2.986,0,0,1-2.983-2.983.746.746,0,1,0-1.492,0,2.986,2.986,0,0,1-2.983,2.983.746.746,0,1,0,0,1.492,2.986,2.986,0,0,1,2.983,2.983.746.746,0,1,0,1.492,0,2.986,2.986,0,0,1,2.983-2.983.746.746,0,0,0,0-1.492Zm-3.729,2a4.521,4.521,0,0,0-1.258-1.258,4.511,4.511,0,0,0,1.258-1.258,4.521,4.521,0,0,0,1.258,1.258A4.524,4.524,0,0,0,345.81,193.467Z" transform="translate(-341.335 -187.734)"/></g><g transform="translate(5.967 23.034)"><path class="a" d="M76.471,89.063a2.986,2.986,0,0,1-2.983-2.983.746.746,0,0,0-1.492,0,2.987,2.987,0,0,1-2.984,2.983.746.746,0,0,0,0,1.492A2.986,2.986,0,0,1,72,93.538a.746.746,0,0,0,1.492,0,2.986,2.986,0,0,1,2.983-2.983.746.746,0,0,0,0-1.492Zm-3.729,2a4.521,4.521,0,0,0-1.258-1.258,4.512,4.512,0,0,0,1.258-1.258A4.521,4.521,0,0,0,74,89.809,4.521,4.521,0,0,0,72.742,91.067Z" transform="translate(-68.267 -85.334)"/></g></g></svg>