<svg xmlns="http://www.w3.org/2000/svg" width="121.388" height="121.388" viewBox="0 0 121.388 121.388"><defs><style>.a{fill:#45c9a5;}.b{fill:#fff;}</style></defs><g transform="translate(0)"><path class="a" d="M106.7,34.785c2.542-5.308,2.181-11.737-2.181-16.1L102.7,16.869a13.456,13.456,0,0,0-16.1-2.181c-3.614,2.024-11.261-2.184-11.827-4.91C73.587,4.053,68.063,0,61.933,0L58.812.159A13.494,13.494,0,0,0,46,13.635c.245,3.117-5.1,5.423-8.2,3.4a13.634,13.634,0,0,0-19.282,0L17.03,18.524a13.794,13.794,0,0,0-1.951,16.825c2.158,3.658.054,10.132-3.491,11C5.137,47.937,0,52.682,0,59.674v2.257c0,6.192,4.51,10.812,10.121,12.8,5.821,2.065,5.362,10.6,4.765,11.627a13.64,13.64,0,0,0,2.144,16.5l1.493,1.493a13.931,13.931,0,0,0,16.426,2.189c3.814-1.992,10.936,1.731,11.526,4.774,1.145,5.9,6.867,10.066,13.163,10.066h1.943a13.809,13.809,0,0,0,13.164-9.638c1.155-3.654,6.747-7.356,12.309-5.016,5.292,2.226,11.81,1.624,15.945-2.511l1.358-1.358a13.634,13.634,0,0,0,0-19.282c-2.392-2.172.683-8.16,3.4-8.2a13.635,13.635,0,0,0,13.635-13.635V59.415c0-6.27-4.162-11.863-10.021-13.15C107.428,45.4,105.425,37.448,106.7,34.785Z" transform="translate(0)"/><path class="b" d="M152.47,206.3l-15.822-15.822a4.855,4.855,0,0,1,6.867-6.867L155.9,196l26.762-26.762a4.855,4.855,0,1,1,6.867,6.867l-30.2,30.2C157.344,208,153.784,207.753,152.47,206.3Z" transform="translate(-102.396 -127.071)"/></g></svg>