<svg xmlns="http://www.w3.org/2000/svg" width="52.387" height="49.507" viewBox="0 0 52.387 49.507"><defs><style>.a{fill:#55b364;}.b{fill:#151a6a;}</style></defs><path class="a" d="M45.6,39.915a7.6,7.6,0,1,0-7.6-7.6A7.6,7.6,0,0,0,45.6,39.915Zm-3.132-8.2a.845.845,0,0,1,1.195,0l1.706,1.705,2.01-4.021a.846.846,0,0,1,1.513.756l-2.535,5.07a.845.845,0,0,1-1.352.22l-2.535-2.535a.845.845,0,0,1,0-1.195Z" transform="translate(-6.736 -6.115)"/><path class="a" d="M53.138,41.627a13.52,13.52,0,1,0-17.243,0l-4.2,10.5a1.69,1.69,0,0,0,2.032,2.252l3.943-1.126,2.215,1.108a1.69,1.69,0,0,0,2.359-.978l2.27-6.811,2.208,6.623a1.69,1.69,0,0,0,2.619.817L51.4,52.471l3.59,1.539a1.69,1.69,0,0,0,2.235-2.18Zm-8.619-19.7a9.295,9.295,0,1,1-9.295,9.295A9.295,9.295,0,0,1,44.519,21.928ZM40.25,46.7a.846.846,0,1,1-1.605-.535l.805-2.416a13.4,13.4,0,0,0,1.605.527Zm9.606.534a.845.845,0,0,1-1.068-.534l-.8-2.423a13.4,13.4,0,0,0,1.605-.527l.805,2.416a.845.845,0,0,1-.538,1.069Z" transform="translate(-5.65 -5.029)"/><g transform="translate(0 0)"><path class="b" d="M41.559,2.7H3.535A2.535,2.535,0,0,0,1,5.24V32.279a2.535,2.535,0,0,0,2.535,2.535H41.559a2.535,2.535,0,0,0,2.535-2.535V5.24a2.535,2.535,0,0,0-2.535-2.535ZM42.4,32.279a.845.845,0,0,1-.845.845H3.535a.845.845,0,0,1-.845-.845V5.24a.845.845,0,0,1,.845-.845H41.559a.845.845,0,0,1,.845.845Z" transform="translate(-1 -2.705)"/><path class="b" d="M15.45,11.7a8.45,8.45,0,1,0,8.45,8.45A8.45,8.45,0,0,0,15.45,11.7Zm6.7,7.6H18.814a16.175,16.175,0,0,0-1.028-5.492,6.77,6.77,0,0,1,4.366,5.492Zm-6.7,7.6c-.406,0-1.528-2.028-1.674-5.915h3.348C16.978,24.882,15.855,26.915,15.45,26.915Zm-1.674-7.6c.146-3.887,1.267-5.915,1.674-5.915s1.528,2.028,1.674,5.915Zm-.662-5.492a16.175,16.175,0,0,0-1.028,5.492H8.748a6.77,6.77,0,0,1,4.366-5.491ZM8.748,21h3.338a16.174,16.174,0,0,0,1.028,5.492A6.769,6.769,0,0,1,8.748,21Zm9.037,5.492A16.174,16.174,0,0,0,18.814,21h3.338a6.769,6.769,0,0,1-4.366,5.488Z" transform="translate(-1.93 -4.1)"/><path class="b" d="M42.985,14.7H32.845a.845.845,0,0,0,0,1.69h10.14a.845.845,0,0,0,0-1.69Z" transform="translate(-5.806 -4.565)"/><path class="b" d="M42.985,20.7H32.845a.845.845,0,0,0,0,1.69h10.14a.845.845,0,0,0,0-1.69Z" transform="translate(-5.806 -5.495)"/><path class="b" d="M42.985,26.7H32.845a.845.845,0,0,0,0,1.69h10.14a.845.845,0,1,0,0-1.69Z" transform="translate(-5.806 -6.426)"/></g></svg>