<svg xmlns="http://www.w3.org/2000/svg" xmlns:xlink="http://www.w3.org/1999/xlink" width="47.5" height="47.5" viewBox="0 0 47.5 47.5">
  <defs>
    <clipPath id="clip-path">
      <path id="path18" d="M0-47.5H47.5V0H0Z"/>
    </clipPath>
  </defs>
  <g id="g10" transform="translate(0 47.5)">
    <g id="g12">
      <g id="g14" clip-path="url(#clip-path)">
        <g id="g20" transform="translate(42.881 -24.58)">
          <path id="path22" d="M0,0A2.448,2.448,0,0,0-.649-3.476a2.448,2.448,0,0,0-3.475.649l-6.564,9.572a12.812,12.812,0,0,0-.749-1.118l9.11-13.286a2.447,2.447,0,0,0-.649-3.475,2.447,2.447,0,0,0-3.475.647l-8.57,12.5c-.319-.261-.644-.521-.981-.777l9.934-14.487a2.448,2.448,0,0,0-.648-3.475,2.447,2.447,0,0,0-3.475.647L-20.125-1.6c-.365-.225-.726-.419-1.088-.623l9.284-13.54a2.447,2.447,0,0,0-.649-3.475,2.447,2.447,0,0,0-3.475.647L-25.87-4.27l-.786,1.148-.706,1.031a12.526,12.526,0,0,1,3.24,17.378,1.224,1.224,0,0,1-1.737.325C-21.619,9.425-22.915,2.474-29.1-1.767l1.827-9.128A2.449,2.449,0,0,0-29-13.983a2.448,2.448,0,0,0-3.086,1.724L-34.19-6a55.458,55.458,0,0,1-2.9,7.287,15,15,0,0,0,4.926,19.1A15,15,0,0,0-11.31,16.5c.247-.363.455-.716.653-1.07l.055.039Z" fill="#fbd17d"/>
        </g>
        <g id="g24" transform="translate(3.802 -37.5)">
          <path id="path26" d="M0,0H-2.5A8.708,8.708,0,0,1,6.2-8.7v2.5A6.205,6.205,0,0,0,0,0" fill="#55b364"/>
        </g>
        <g id="g28" transform="translate(6.25 -31.25)">
          <path id="path30" d="M0,0H-2.5A12.514,12.514,0,0,1,10-12.5V-10A10.012,10.012,0,0,0,0,0" fill="#55b364"/>
        </g>
        <g id="g32" transform="translate(37.5 -1.25)">
          <path id="path34" d="M0,0V-2.5A5.9,5.9,0,0,0,6.25-8.75h2.5A8.544,8.544,0,0,1,0,0" fill="#55b364"/>
        </g>
        <g id="g36" transform="translate(31.25 -3.697)">
          <path id="path38" d="M0,0V-2.5c5,0,10.052-5.052,10.052-10.052h2.5C12.552-5.052,7.5,0,0,0" fill="#55b364"/>
        </g>
      </g>
    </g>
  </g>
</svg>
