<svg xmlns="http://www.w3.org/2000/svg" width="25.679" height="25.722" viewBox="0 0 25.679 25.722"><defs><style>.a{fill:#9597ac;}</style></defs><path class="a" d="M23.176,5.562V4.834H20.614a5.386,5.386,0,0,0-4.341,2.207A5.393,5.393,0,0,0,11.064,3H8.5v.728a5.393,5.393,0,0,0,5.386,5.386h1.339v4.891h1.223V11.119l9.636,2.409-10.247,4.1L5.195,14.042l8.376-2.482-.355-1.223L3,13.394v1.223l12.839,4.316L27.456,14.3v3.571L15.839,22.522,3,18.034v6.187l12.839,4.5,12.839-5.246V22.149L15.839,27.413,4.223,23.354v-3.6L15.839,23.83,28.679,18.7V12.917l-9.11-2.274A5.393,5.393,0,0,0,23.176,5.562Zm-2.562.5h1.339A4.17,4.17,0,0,1,17.82,9.725H16.481a4.17,4.17,0,0,1,4.133-3.668ZM13.889,7.891A4.17,4.17,0,0,1,9.756,4.223h1.308a4.17,4.17,0,0,1,4.164,3.668Z" transform="translate(-3 -3)"/></svg>