<svg xmlns="http://www.w3.org/2000/svg" width="19.664" height="19.664" viewBox="0 0 19.664 19.664"><defs><style>.a{fill:#26272e;}</style></defs><path class="a" d="M19.664,9.832A1.322,1.322,0,0,0,19,8.692l-1.095-.644L19,7.4a1.311,1.311,0,0,0,0-2.28C17.632,4.3,12.991,1.545,10.7.233a1.748,1.748,0,0,0-1.747,0S2.735,3.89.664,5.116a1.311,1.311,0,0,0,0,2.28l1.1.651L.664,8.692a1.311,1.311,0,0,0,0,2.281l1.1.651-1.095.644a1.311,1.311,0,0,0,0,2.281c1.771,1.053,6.124,3.638,8.3,4.884a1.742,1.742,0,0,0,1.743,0c2.173-1.246,6.526-3.83,8.3-4.884a1.311,1.311,0,0,0,0-2.28l-1.095-.644,1.1-.651A1.324,1.324,0,0,0,19.664,9.832ZM1.121,6.63a.442.442,0,0,1-.227-.372.438.438,0,0,1,.226-.371C3.188,4.661,9.4,1.012,9.4,1.013a.849.849,0,0,1,.859,0c2.282,1.308,6.919,4.063,8.285,4.876a.418.418,0,0,1,0,.744c-1.768,1.052-6.116,3.633-8.284,4.876a.852.852,0,0,1-.855,0C7.237,10.263,2.889,7.681,1.121,6.63Zm17.424,6.407a.418.418,0,0,1,0,.743c-1.768,1.052-6.116,3.633-8.284,4.876a.852.852,0,0,1-.855,0c-2.168-1.243-6.516-3.824-8.285-4.876a.442.442,0,0,1-.227-.372.438.438,0,0,1,.226-.371l1.517-.892c2.05,1.215,4.754,2.812,6.324,3.712a1.742,1.742,0,0,0,1.743,0c1.57-.9,4.274-2.5,6.323-3.712Zm0-2.832c-1.768,1.052-6.116,3.633-8.284,4.876a.852.852,0,0,1-.855,0c-2.168-1.243-6.516-3.824-8.285-4.876a.442.442,0,0,1-.227-.372.438.438,0,0,1,.226-.371l1.517-.892c2.05,1.215,4.754,2.812,6.324,3.712a1.742,1.742,0,0,0,1.743,0c1.57-.9,4.274-2.5,6.323-3.712l1.517.893a.418.418,0,0,1,0,.743Z" transform="translate(0 -0.001)"/></svg>