<svg xmlns="http://www.w3.org/2000/svg" width="38.21" height="38.442" viewBox="0 0 38.21 38.442"><defs><style>.a{fill:#9597ac;}</style></defs><path class="a" d="M37.445,2H4.885A2.787,2.787,0,0,0,2.06,4.749V37.693a2.787,2.787,0,0,0,2.825,2.749h32.56a2.787,2.787,0,0,0,2.825-2.749V4.749A2.787,2.787,0,0,0,37.445,2ZM13.65,34.175H7.884v-17.3H13.65Zm-2.883-19.72h0a3,3,0,0,1,0-6,3.018,3.018,0,1,1,0,6Zm23.68,19.72H28.68V24.892c0-2.326-.826-3.844-2.922-3.844a3.171,3.171,0,0,0-2.96,2.1,3.844,3.844,0,0,0-.192,1.4v9.61H16.841v-17.3h5.766V19.3a5.766,5.766,0,0,1,5.209-2.883c3.844,0,6.631,2.479,6.631,7.8Z" transform="translate(-2.06 -2)"/></svg>