<svg xmlns="http://www.w3.org/2000/svg" width="44.752" height="53.887" viewBox="0 0 44.752 53.887"><defs><style>.a{fill:#5694e8;}</style></defs><g transform="translate(-39.838)"><path class="a" d="M84.524,47.968,77.39,30.745A.86.86,0,1,0,75.8,31.4l6.449,15.57-5.883-1.7a.86.86,0,0,0-.992.411l-2.954,5.365L65.5,34.338A17.34,17.34,0,1,0,48.315,27.66L39.9,47.968a.86.86,0,0,0,1.034,1.155l6.94-2.011,3.485,6.33a.86.86,0,0,0,.753.445h.048a.86.86,0,0,0,.747-.53l6.665-16.092a.86.86,0,1,0-1.589-.658L52.007,51.045,49.052,45.68a.86.86,0,0,0-.993-.411l-5.883,1.7L49.56,29.148a17.28,17.28,0,0,0,12.654,5.5c.515,0,1.024-.024,1.528-.068l7.776,18.772a.86.86,0,0,0,.747.529h.048a.86.86,0,0,0,.753-.445l3.486-6.33,6.94,2.011a.86.86,0,0,0,1.034-1.155ZM46.608,17.326A15.606,15.606,0,1,1,62.214,32.932,15.624,15.624,0,0,1,46.608,17.326Z"/><path class="a" d="M167.887,67.219a.86.86,0,0,0-.676-.582l-5.786-.971-2.711-5.2a.86.86,0,0,0-1.525,0l-2.712,5.2-5.786.971a.86.86,0,0,0-.471,1.45l4.11,4.187-.864,5.8a.86.86,0,0,0,1.234.9l5.252-2.615,5.252,2.615a.86.86,0,0,0,1.234-.9l-.864-5.8,4.11-4.187A.86.86,0,0,0,167.887,67.219Zm-5.842,4.155a.86.86,0,0,0-.237.729l.684,4.595-4.158-2.071a.859.859,0,0,0-.767,0L153.41,76.7l.684-4.595a.86.86,0,0,0-.237-.729L150.6,68.059l4.581-.769a.86.86,0,0,0,.62-.451l2.147-4.119L160.1,66.84a.86.86,0,0,0,.62.451l4.581.769Z" transform="translate(-95.737 -53.121)"/><path class="a" d="M140.794,44.754a.859.859,0,0,0-.965.74,12.167,12.167,0,1,1,0-3.214.86.86,0,1,0,1.7-.226,13.886,13.886,0,1,0,0,3.665.86.86,0,0,0-.74-.965Z" transform="translate(-65.554 -26.56)"/></g></svg>