<svg xmlns="http://www.w3.org/2000/svg" width="98.035" height="96.448" viewBox="0 0 98.035 96.448"><defs><style>.a{fill:#5694e8;}</style></defs><path class="a" d="M403.508,93.215a1.436,1.436,0,0,0,1.976.47l7.785-4.788a1.436,1.436,0,1,0-1.506-2.446l-7.784,4.788A1.436,1.436,0,0,0,403.508,93.215Zm0,0" transform="translate(-326.074 -69.725)"/><path class="a" d="M450.386,167.8l-11.412-1.108a1.436,1.436,0,1,0-.278,2.859l11.411,1.108c.048,0,.094.007.141.007a1.436,1.436,0,0,0,.138-2.865Zm0,0" transform="translate(-353.647 -134.767)"/><path class="a" d="M370.108,13.46a1.432,1.432,0,0,0,1.859-.818l4.156-10.686A1.436,1.436,0,1,0,373.447.916L369.29,11.6A1.436,1.436,0,0,0,370.108,13.46Zm0,0" transform="translate(-298.501 0)"/><path class="a" d="M61.464,22.286A3.334,3.334,0,0,0,56.881,21.2l-1.718,1.06a3.331,3.331,0,0,0-1.086,4.583l.988,1.6L32.483,56.4l-4.769,2.942a1.436,1.436,0,0,0,1.509,2.444l3.755-2.317L40.3,71.331a5.866,5.866,0,0,0-3.07.642L37.176,72c-.129.068-.257.139-.381.216L32.5,74.879a7.708,7.708,0,0,0-2.535,2.6l-1.06,1.6-.779,1.173-.02-.007-.035-.016c-.061-.027-.12-.057-.178-.089l-.037-.02a2.2,2.2,0,0,1-.185-.123l-.037-.028a2.046,2.046,0,0,1-.157-.135l-.019-.017a2.181,2.181,0,0,1-.153-.168l-.031-.039a2.135,2.135,0,0,1-.135-.191L20.935,69.354a2.087,2.087,0,0,1,.68-2.873l1.858-1.146a1.436,1.436,0,0,0-1.508-2.444l-1.858,1.146A4.962,4.962,0,0,0,17.935,69.6l-1.381.853a3.944,3.944,0,0,0-1.283,5.421l3.5,5.681a3.914,3.914,0,0,0,2.444,1.764,3.975,3.975,0,0,0,.915.108,3.909,3.909,0,0,0,2.061-.589l1.384-.853a4.96,4.96,0,0,0,.945.676l-3.987,6.006-.94.642a1.734,1.734,0,0,0-1.9.219L17.22,91.607a1.746,1.746,0,0,0-1.925.03c-.028.019-.055.039-.082.06l-13.93,11A3.355,3.355,0,0,0,0,105.341v4.473a3.378,3.378,0,0,0,3.374,3.374H26.161a3.358,3.358,0,0,0,2.631-1.261l1.889-2.351a1.741,1.741,0,0,0,.421-1.334l2.542-2.14a1.722,1.722,0,0,0,.527-.776l5.86,1.2a1.412,1.412,0,0,0,.263.029c.171,0,.342.005.512.005a7.636,7.636,0,0,0,4.219-1.017l5.9-3.516c.1.006.2.01.3.01a4.657,4.657,0,0,0,2.437-.69l4.743-2.9a4.684,4.684,0,0,0-.323-8.179,4.733,4.733,0,0,0-3.042-6.792,4.722,4.722,0,0,0-3.318-5.555,4.725,4.725,0,0,0-.538-3.663,4.8,4.8,0,0,0-.627-.811l28.455-6.194.988,1.6a3.333,3.333,0,0,0,4.583,1.086l1.718-1.06A3.331,3.331,0,0,0,87.387,64.3ZM22.688,80.391a1.068,1.068,0,0,1-1.469-.348l-3.5-5.681a1.07,1.07,0,0,1,.348-1.469l1.218-.752,4.626,7.5Zm3.864,29.738a.5.5,0,0,1-.391.188H3.374a.5.5,0,0,1-.5-.5v-4.473a.5.5,0,0,1,.191-.394L16.128,94.634,27.9,108.447Zm2.92-4.269L19.143,93.743l1.53-1.287,10.252,12.183Zm14.076-2.778a5.232,5.232,0,0,1-3.071.606L33.12,102.18a1.432,1.432,0,0,0-.52-.011L23.569,91.437l.818-.559h0l.04-.031c.031-.023.061-.046.09-.071l.041-.039c.029-.027.056-.055.082-.084.01-.011.022-.023.031-.035.032-.039.063-.079.091-.12l.008-.01.007-.01.007-.011,7.595-11.438c.016-.025.032-.05.047-.076a4.7,4.7,0,0,1,1.586-1.632l4.294-2.663c.079-.049.16-.093.242-.135.037-.019.074-.034.111-.052s.086-.039.13-.056.1-.039.152-.056c.026-.01.053-.018.08-.026.063-.019.126-.038.19-.054h0a3.049,3.049,0,0,1,.7-.085h.015c.069,0,.137,0,.2.007l.066.006c.061.005.12.012.18.021.035.005.071.013.107.019.091.017.182.039.271.065l.1.029c.046.016.09.033.135.051s.071.027.105.042.088.04.132.061l.1.05c.043.023.087.048.129.074l.086.055c.043.028.085.057.126.088.025.019.049.039.073.058.043.034.085.067.125.1a2.76,2.76,0,0,1,.509.61l.105.173,1.531,2.5,1.921,3.135.488.8a1.264,1.264,0,0,1,.114.236,1.341,1.341,0,0,1,.04.778,1.476,1.476,0,0,1-.675.917l-.864.528h0a1.51,1.51,0,0,1-.183.093l-.04.017a1.466,1.466,0,0,1-.188.063l-.023.005a1.5,1.5,0,0,1-.18.031l-.035,0a1.656,1.656,0,0,1-.192,0l-.036,0a1.512,1.512,0,0,1-.193-.025h0a1.408,1.408,0,0,1-.2-.058l-.017-.006a1.352,1.352,0,0,1-.372-.215h0a1.387,1.387,0,0,1-.155-.148l-.012-.014a1.237,1.237,0,0,1-.122-.165l-1.432-2.34a3.8,3.8,0,0,0-2.382-1.722,3.925,3.925,0,0,0-3,.492,1.437,1.437,0,0,0-.666,1.026c-.016.123-.037.243-.058.362-.016.087-.035.173-.055.258-.006.028-.012.058-.019.086-.025.108-.053.214-.084.319a.116.116,0,0,1,0,.013,6.085,6.085,0,0,1-.677,1.527,0,0,0,0,0,0,0,6.742,6.742,0,0,1-2.28,2.184,1.436,1.436,0,0,0,1.492,2.454,10.508,10.508,0,0,0,1.862-1.429l6,9.458a5.951,5.951,0,0,0,4.99,2.708c.1,0,.209-.005.314-.011.041.075.083.149.128.223a4.731,4.731,0,0,0,.58.761Zm1.218-10.558v0c.024.067.05.133.078.2l.01.024c.025.06.052.119.079.178.007.013.012.027.019.04.026.055.055.11.084.165.009.016.016.033.025.049.038.07.079.14.12.209.072.118.15.231.231.341.029.039.059.077.089.115.053.067.108.132.164.2.04.045.079.091.12.135s.064.063.1.095a4.731,4.731,0,0,0,.364.328l.04.031a4.663,4.663,0,0,0,.794.509,4.729,4.729,0,0,0-.507,1.563A3.05,3.05,0,0,1,44.2,95.327L37.6,84.915a9.244,9.244,0,0,0,.7-2.025,1.068,1.068,0,0,1,.307.027.948.948,0,0,1,.6.426l1.432,2.34.007.01a4.007,4.007,0,0,0,.227.332c.06.079.124.152.188.225.022.025.043.053.066.079,0,.013.007.025.01.038q.034.149.076.3c.009.028.017.057.025.085.035.111.073.221.116.328,0,.011.009.022.013.032.04.1.084.2.131.291.013.028.027.055.041.082.054.1.11.208.171.31A4.706,4.706,0,0,0,44.6,89.914,4.719,4.719,0,0,0,44.767,92.524Zm.916-17.091.482-.295a1.866,1.866,0,1,1,1.947,3.185l-.479.293L46.214,76.3Zm10.7,17.25A1.817,1.817,0,0,1,56.906,96l-4.743,2.9a1.8,1.8,0,0,1-1.26.238c-.025-.005-.05-.011-.076-.015l-.039-.007a1.806,1.806,0,0,1-1.353-1.405.107.107,0,0,0,0-.016,1.829,1.829,0,0,1,.482-1.612l.033-.034.064-.059c.022-.019.044-.039.068-.057l.052-.041c.043-.031.085-.061.131-.09l0,0,.942-.576a4.913,4.913,0,0,0,.488-.258l3.628-2.218A1.808,1.808,0,0,1,56.386,92.683Zm-3.3-6.295a1.866,1.866,0,0,1,1.777,3.277L54,90.187a4.765,4.765,0,0,0-.491.261L49.9,92.654a1.871,1.871,0,0,1-1.948-.366h0c-.04-.037-.079-.076-.115-.117l-.028-.034c-.027-.031-.054-.063-.079-.1s-.068-.1-.1-.146-.06-.1-.086-.159c-.008-.017-.015-.034-.023-.052-.016-.037-.033-.074-.047-.112-.007-.02-.013-.04-.02-.06-.012-.037-.023-.073-.033-.109-.005-.02-.01-.041-.015-.061q-.012-.055-.022-.112l-.009-.058q-.008-.058-.011-.117c0-.019,0-.037,0-.056,0-.04,0-.081,0-.12,0-.018,0-.035,0-.052,0-.041.007-.082.011-.122,0-.017,0-.034.006-.052.005-.036.013-.072.02-.108a1.863,1.863,0,0,1,.6-1.02c.013-.011.024-.025.037-.036s.035-.031.054-.046c.045-.025.091-.049.135-.076l4.66-2.848Q52.986,86.454,53.082,86.388Zm-2.231-5.729a1.866,1.866,0,0,1,.705,3.289c-.048.026-.095.053-.142.082l-3.6,2.2.035-.029c.069-.055.138-.11.2-.168.04-.036.079-.074.117-.111.058-.057.117-.114.172-.175.038-.04.074-.083.11-.125.052-.061.1-.123.15-.186.034-.044.067-.089.1-.135.046-.065.089-.132.132-.2.029-.047.058-.094.085-.141.041-.072.079-.146.115-.22.023-.047.048-.093.069-.141.037-.083.07-.168.1-.254.015-.041.033-.082.047-.123.044-.129.084-.26.116-.394s.055-.257.073-.385c.006-.041.009-.082.014-.123.01-.088.019-.176.024-.264,0-.048,0-.1,0-.144,0-.082,0-.164,0-.245,0-.049,0-.1-.007-.146-.006-.082-.016-.165-.026-.246-.006-.046-.011-.091-.019-.136-.016-.093-.035-.184-.058-.275-.007-.033-.013-.067-.022-.1-.033-.123-.07-.245-.114-.366-.009-.023-.019-.046-.029-.07-.031-.081-.062-.162-.1-.242l.33-.2A1.855,1.855,0,0,1,50.851,80.659ZM85,66.154a.458.458,0,0,1-.206.284L83.075,67.5a.46.46,0,0,1-.631-.15L64.356,38.034a1.436,1.436,0,1,0-2.444,1.508l15.5,25.123L44.042,71.93,35.2,57.6,56.664,31.036,58.4,33.847a1.436,1.436,0,1,0,2.444-1.509l-4.321-7a.459.459,0,0,1,.15-.631l1.718-1.06a.459.459,0,0,1,.631.15L84.942,65.808A.456.456,0,0,1,85,66.154Zm0,0" transform="translate(0 -16.741)"/></svg>