<svg xmlns="http://www.w3.org/2000/svg" xmlns:xlink="http://www.w3.org/1999/xlink" viewBox="0 0 826.01 290.02"><defs><style>.cls-1{isolation:isolate;}.cls-2{fill:#1b9dd9;}.cls-3{fill:url(#linear-gradient);}.cls-4{fill:none;stroke:#1b9dd9;stroke-width:10px;}</style><linearGradient id="linear-gradient" x1="17.98" y1="-1733.86" x2="332.19" y2="-1544.54" gradientTransform="matrix(1, 0, 0, -1, 0, -1457.37)" gradientUnits="userSpaceOnUse"><stop offset="0" stop-color="#1b9dd9" stop-opacity="0.6"/><stop offset="0.24" stop-color="#1b9dd9" stop-opacity="0.4"/><stop offset="0.7" stop-color="#8fd3f1" stop-opacity="0.26"/><stop offset="1" stop-color="#ceeaf9" stop-opacity="0.2"/></linearGradient></defs><g id="Layer_2" data-name="Layer 2"><g id="Layer_2-2" data-name="Layer 2"><g id="Layer_1-2" data-name="Layer 1-2"><g id="Layer_4" data-name="Layer 4"><g id="MKB"><g class="cls-1"><path class="cls-2" d="M357.53,188.63a5.44,5.44,0,0,1-1.69-3.95V38A5.35,5.35,0,0,1,357.53,34a5.63,5.63,0,0,1,4-1.58h24.37a8.28,8.28,0,0,1,7.9,5l39.7,71.06,39.71-71.06a8.27,8.27,0,0,1,7.9-5H505.2A5.9,5.9,0,0,1,509.37,34,5.31,5.31,0,0,1,511.06,38V184.68a5.28,5.28,0,0,1-1.69,4.06,5.86,5.86,0,0,1-4.17,1.58H478.35a5.82,5.82,0,0,1-4.17-1.58,5.29,5.29,0,0,1-1.7-4.06v-84.6l-25.27,47.15c-1.95,3.46-4.59,5.19-7.89,5.19H427.59a7.7,7.7,0,0,1-4.74-1.35,11.61,11.61,0,0,1-3.16-3.84L394.2,100.08v84.6a5.61,5.61,0,0,1-1.58,3.95,5.31,5.31,0,0,1-4.06,1.69H361.48A5.42,5.42,0,0,1,357.53,188.63Z"/><path class="cls-2" d="M544.34,188.63a5.41,5.41,0,0,1-1.7-3.95V38a5.32,5.32,0,0,1,1.7-4.06,5.59,5.59,0,0,1,3.94-1.58h28.43A5.41,5.41,0,0,1,582.35,38V88.12l41.74-51.44c1.81-2.85,4.74-4.29,8.8-4.29h32.49a4.4,4.4,0,0,1,3.38,1.47,4.72,4.72,0,0,1,1.35,3.27,5.16,5.16,0,0,1-.67,2.71L615.29,108l58.21,74.91a3.67,3.67,0,0,1,.9,2.7,4.69,4.69,0,0,1-1.35,3.27,4.37,4.37,0,0,1-3.39,1.47H636.05a11.12,11.12,0,0,1-9-4.51l-44.67-55.73v54.6a5.41,5.41,0,0,1-5.64,5.64H548.28A5.38,5.38,0,0,1,544.34,188.63Z"/><path class="cls-2" d="M693.92,188.63a5.41,5.41,0,0,1-1.7-3.95V38a5.32,5.32,0,0,1,1.7-4.06,5.59,5.59,0,0,1,3.94-1.58h68.81Q795.11,32.39,809,44t13.87,33.06q0,11.28-5.75,19.06a36.73,36.73,0,0,1-13,11.39,37.8,37.8,0,0,1,15.56,13.76A37.42,37.42,0,0,1,826,142.49q0,22.56-14.89,35.2T768.7,190.32H697.86A5.38,5.38,0,0,1,693.92,188.63Zm68.24-93.52q9,0,13.76-4.62t4.74-12.3q0-7.44-4.74-12t-13.76-4.52H732.83V95.11Zm2,65.88q9.25,0,14.44-5.41a19.52,19.52,0,0,0,0-26.51q-5.19-5.29-14.44-5.3H732.83V161Z"/></g></g><g id="Financiering"><g class="cls-1"><path class="cls-2" d="M454.68,274.57a1.45,1.45,0,0,1-.41-1.09V228.7a1.56,1.56,0,0,1,.41-1.13,1.39,1.39,0,0,1,1.09-.45h26.39a1.43,1.43,0,0,1,1.57,1.58v1a1.38,1.38,0,0,1-.44,1.09,1.57,1.57,0,0,1-1.13.41H458.57v18.4h22.22a1.43,1.43,0,0,1,1.58,1.57v1a1.41,1.41,0,0,1-.45,1.1,1.6,1.6,0,0,1-1.13.41H458.57v19.76a1.4,1.4,0,0,1-.44,1.09A1.62,1.62,0,0,1,457,275h-1.23A1.47,1.47,0,0,1,454.68,274.57Z"/><path class="cls-2" d="M492,231.7a1.43,1.43,0,0,1-.41-1.09V228a1.59,1.59,0,0,1,.41-1.13,1.42,1.42,0,0,1,1.09-.44h2.6a1.51,1.51,0,0,1,1.57,1.57v2.6a1.42,1.42,0,0,1-.44,1.09,1.59,1.59,0,0,1-1.13.41h-2.6A1.43,1.43,0,0,1,492,231.7Zm.75,42.87a1.49,1.49,0,0,1-.41-1.09V240.93a1.41,1.41,0,0,1,1.5-1.5H495a1.41,1.41,0,0,1,1.5,1.5v32.55A1.41,1.41,0,0,1,495,275h-1.17A1.49,1.49,0,0,1,492.76,274.57Z"/><path class="cls-2" d="M508,274.57a1.49,1.49,0,0,1-.41-1.09V240.93a1.49,1.49,0,0,1,.41-1.09,1.51,1.51,0,0,1,1.1-.41h1.16a1.51,1.51,0,0,1,1.1.41,1.49,1.49,0,0,1,.41,1.09v3.22a14.12,14.12,0,0,1,4.68-4,14.74,14.74,0,0,1,6.8-1.36q6.71,0,10.32,4.27t3.63,11v19.42a1.41,1.41,0,0,1-1.51,1.5h-1.16a1.49,1.49,0,0,1-1.09-.41,1.45,1.45,0,0,1-.41-1.09V254.4q0-5.53-2.7-8.61t-7.76-3.08a10.32,10.32,0,0,0-7.87,3.11c-2,2.08-2.93,4.94-2.93,8.58v19.08a1.49,1.49,0,0,1-.41,1.09,1.51,1.51,0,0,1-1.1.41H509.1A1.51,1.51,0,0,1,508,274.57Z"/><path class="cls-2" d="M551.42,274.3a11.74,11.74,0,0,1-4.48-3.69,8.55,8.55,0,0,1-1.67-5.13,9,9,0,0,1,3.65-7.39,20,20,0,0,1,9.88-3.69l10.81-1.5v-2.4a7.3,7.3,0,0,0-2.29-5.77q-2.3-2-7-2a10.75,10.75,0,0,0-5.71,1.37,6.14,6.14,0,0,0-2.84,3.28,2.45,2.45,0,0,1-.65,1.13,1.54,1.54,0,0,1-1,.31h-1a1.52,1.52,0,0,1-1.5-1.51,6.54,6.54,0,0,1,1.37-3.52,11.27,11.27,0,0,1,4.24-3.52,15,15,0,0,1,7-1.5q7.31,0,10.39,3.48a12.38,12.38,0,0,1,3.08,8.48v22.77a1.49,1.49,0,0,1-.41,1.09,1.51,1.51,0,0,1-1.1.41h-1.16a1.47,1.47,0,0,1-1.09-.41,1.45,1.45,0,0,1-.41-1.09v-3.22a12.07,12.07,0,0,1-4.42,3.83,16.12,16.12,0,0,1-7.69,1.58A13.72,13.72,0,0,1,551.42,274.3Zm15-5.88q3.21-3.29,3.22-9.44v-2.32l-8.82,1.23a21.13,21.13,0,0,0-8.48,2.6,5.48,5.48,0,0,0-.24,9.5,11.86,11.86,0,0,0,14.32-1.57Z"/><path class="cls-2" d="M585,274.57a1.45,1.45,0,0,1-.41-1.09V240.93a1.45,1.45,0,0,1,.41-1.09,1.49,1.49,0,0,1,1.09-.41h1.16a1.41,1.41,0,0,1,1.51,1.5v3.22a14.32,14.32,0,0,1,4.68-4,14.78,14.78,0,0,1,6.81-1.36q6.69,0,10.32,4.27a16.51,16.51,0,0,1,3.62,11v19.42a1.45,1.45,0,0,1-.41,1.09,1.49,1.49,0,0,1-1.09.41h-1.16a1.41,1.41,0,0,1-1.51-1.5V254.4q0-5.53-2.7-8.61t-7.76-3.08a10.32,10.32,0,0,0-7.86,3.11q-2.94,3.12-2.94,8.58v19.08a1.41,1.41,0,0,1-1.51,1.5h-1.16A1.49,1.49,0,0,1,585,274.57Z"/><path class="cls-2" d="M627.38,271.53q-3.9-4.14-4.1-11.59l-.07-2.73.07-2.74q.19-7.46,4.1-11.59c2.6-2.76,6.26-4.13,11-4.13a16.93,16.93,0,0,1,7.69,1.6,11.64,11.64,0,0,1,4.75,4.1,10.62,10.62,0,0,1,1.71,5.17,1.22,1.22,0,0,1-.41,1.06,1.6,1.6,0,0,1-1.1.44h-.95a1.32,1.32,0,0,1-1-.31,3.34,3.34,0,0,1-.65-1.13,10.4,10.4,0,0,0-3.83-5.36,11.19,11.19,0,0,0-6.22-1.61,10.43,10.43,0,0,0-7.83,3q-2.91,3-3.11,9.13l-.07,2.4.07,2.39q.19,6.15,3.11,9.13a10.43,10.43,0,0,0,7.83,3,11.19,11.19,0,0,0,6.22-1.61,10.4,10.4,0,0,0,3.83-5.36,3.34,3.34,0,0,1,.65-1.13,1.32,1.32,0,0,1,1-.31H651a1.6,1.6,0,0,1,1.1.44,1.22,1.22,0,0,1,.41,1.06,10.62,10.62,0,0,1-1.71,5.17,11.64,11.64,0,0,1-4.75,4.1,16.93,16.93,0,0,1-7.69,1.61C633.64,275.67,630,274.29,627.38,271.53Z"/><path class="cls-2" d="M661.22,231.7a1.47,1.47,0,0,1-.41-1.09V228a1.64,1.64,0,0,1,.41-1.13,1.43,1.43,0,0,1,1.09-.44h2.6a1.55,1.55,0,0,1,1.13.44,1.54,1.54,0,0,1,.45,1.13v2.6a1.39,1.39,0,0,1-.45,1.09,1.57,1.57,0,0,1-1.13.41h-2.6A1.45,1.45,0,0,1,661.22,231.7Zm.75,42.87a1.49,1.49,0,0,1-.41-1.09V240.93a1.49,1.49,0,0,1,.41-1.09,1.51,1.51,0,0,1,1.1-.41h1.16a1.49,1.49,0,0,1,1.09.41,1.45,1.45,0,0,1,.41,1.09v32.55a1.45,1.45,0,0,1-.41,1.09,1.49,1.49,0,0,1-1.09.41h-1.16A1.51,1.51,0,0,1,662,274.57Z"/><path class="cls-2" d="M679.54,271.39q-4-4.27-4.51-11.45l-.07-2.73.07-2.74q.54-7.11,4.48-11.42a13.52,13.52,0,0,1,10.49-4.3q7.11,0,11.11,4.71t4,12.92v1a1.42,1.42,0,0,1-.44,1.09,1.57,1.57,0,0,1-1.13.41H679.2v.69a15.1,15.1,0,0,0,1.47,6A11.18,11.18,0,0,0,684.4,270a9.48,9.48,0,0,0,5.6,1.68,11.28,11.28,0,0,0,9.51-4.44,4.86,4.86,0,0,1,.92-1,2.15,2.15,0,0,1,1.13-.2h1.09a1.56,1.56,0,0,1,1,.34,1.11,1.11,0,0,1,.41.89,5.77,5.77,0,0,1-1.81,3.45,15.21,15.21,0,0,1-5,3.49,17.39,17.39,0,0,1-7.25,1.47A13.61,13.61,0,0,1,679.54,271.39Zm21.4-16.3v-.28a12.76,12.76,0,0,0-3-8.68,10,10,0,0,0-8-3.42,9.81,9.81,0,0,0-7.89,3.42,12.92,12.92,0,0,0-2.91,8.68v.28Z"/><path class="cls-2" d="M714.55,274.57a1.49,1.49,0,0,1-.41-1.09V241a1.64,1.64,0,0,1,.41-1.13,1.43,1.43,0,0,1,1.09-.44h1.1a1.52,1.52,0,0,1,1.57,1.57v3.15q2.46-4.72,9.3-4.72h2.53a1.41,1.41,0,0,1,1.5,1.5v1a1.47,1.47,0,0,1-.41,1.09,1.45,1.45,0,0,1-1.09.41H727.2a8.26,8.26,0,0,0-8.89,8.89v21.2a1.4,1.4,0,0,1-.45,1.09,1.59,1.59,0,0,1-1.12.41h-1.1A1.49,1.49,0,0,1,714.55,274.57Z"/><path class="cls-2" d="M737.59,231.7a1.43,1.43,0,0,1-.41-1.09V228a1.59,1.59,0,0,1,.41-1.13,1.43,1.43,0,0,1,1.09-.44h2.6a1.55,1.55,0,0,1,1.13.44,1.57,1.57,0,0,1,.44,1.13v2.6a1.42,1.42,0,0,1-.44,1.09,1.57,1.57,0,0,1-1.13.41h-2.6A1.45,1.45,0,0,1,737.59,231.7Zm.75,42.87a1.49,1.49,0,0,1-.41-1.09V240.93a1.41,1.41,0,0,1,1.5-1.5h1.17a1.41,1.41,0,0,1,1.5,1.5v32.55a1.41,1.41,0,0,1-1.5,1.5h-1.17A1.49,1.49,0,0,1,738.34,274.57Z"/><path class="cls-2" d="M753.59,274.57a1.45,1.45,0,0,1-.41-1.09V240.93a1.45,1.45,0,0,1,.41-1.09,1.47,1.47,0,0,1,1.09-.41h1.16a1.51,1.51,0,0,1,1.1.41,1.49,1.49,0,0,1,.41,1.09v3.22a14.22,14.22,0,0,1,4.68-4,14.74,14.74,0,0,1,6.8-1.36q6.7,0,10.33,4.27a16.51,16.51,0,0,1,3.62,11v19.42a1.41,1.41,0,0,1-1.5,1.5h-1.17a1.41,1.41,0,0,1-1.5-1.5V254.4q0-5.53-2.7-8.61t-7.76-3.08a10.32,10.32,0,0,0-7.86,3.11q-2.94,3.12-2.94,8.58v19.08a1.49,1.49,0,0,1-.41,1.09,1.51,1.51,0,0,1-1.1.41h-1.16A1.47,1.47,0,0,1,753.59,274.57Z"/><path class="cls-2" d="M798.23,288.18a11.27,11.27,0,0,1-4.48-4.21,9,9,0,0,1-1.26-4.13,1.36,1.36,0,0,1,.44-1,1.53,1.53,0,0,1,1.06-.41h1a1.49,1.49,0,0,1,1,.31,2.4,2.4,0,0,1,.65,1.13q2.11,6.21,9.85,6.22,5.88,0,8.68-2.43t2.8-8.65v-4.72q-4,5.42-11.48,5.41t-10.91-4.83a20.39,20.39,0,0,1-3.73-11.72l-.06-1.91.06-1.92a20.39,20.39,0,0,1,3.73-11.72q3.53-4.83,10.91-4.82t11.48,5.4V241a1.64,1.64,0,0,1,.41-1.13,1.45,1.45,0,0,1,1.1-.44h1.09a1.51,1.51,0,0,1,1.57,1.57v33.3q0,7.31-3.42,11.52T806.78,290A17.11,17.11,0,0,1,798.23,288.18ZM815,268.11a14.64,14.64,0,0,0,2.94-8.44c.05-.46.07-1.28.07-2.46s0-2-.07-2.47A14.64,14.64,0,0,0,815,246.3q-2.73-3.59-8.13-3.59-5.55,0-8.11,3.52a16,16,0,0,0-2.76,9.06l-.07,1.92.07,1.91a16,16,0,0,0,2.76,9.06q2.57,3.52,8.11,3.52T815,268.11Z"/></g></g></g><path id="Path_342" data-name="Path 342" class="cls-3" d="M305.38,130.67c0-.75,0-1.51-.07-2.31s0-1.66-.08-2.51l-.26-3.91c-.11-1.3-.21-2.61-.34-3.91-.11-1.13-.24-2.27-.39-3.4-.11-.91-.23-1.84-.36-2.75a148.06,148.06,0,0,0-5.53-24.6c-.43-1.39-.92-2.68-1.39-4-.11-.28-.19-.54-.28-.82s-.15-.42-.24-.64c-.45-1.26-.89-2.48-1.36-3.67-.34-.92-.69-1.82-1.07-2.71s-.73-1.8-1.11-2.68c-.87-2-1.8-4-2.73-6s-2.1-4.25-3.22-6.25-2.28-4.15-3.46-6.09c0-.06-.08-.15-.12-.23-.78-1.26-1.54-2.5-2.33-3.75l-.32-.54c-.58-.87-1.16-1.73-1.73-2.6s-1.41-2-2.15-3c-.58-.82-1.15-1.61-1.75-2.44-.15-.19-.28-.38-.43-.58-.75-1-1.49-2-2.26-2.94q-3-3.75-5.6-6.71l-1.61-1.79c-.06-.09-.15-.15-.21-.24C257.21,34,51.83,143.74,24.18,157.41q-12.1,6-24.18,11.94c.19.84.43,1.76.69,2.76s.53,2.11.89,3.29L2,177c.24.79.49,1.61.75,2.42l.92,2.84c.21.66.45,1.32.7,2s.41,1.15.62,1.73c.37,1.07.77,2.11,1.2,3.21,1.07,2.68,2.24,5.53,3.59,8.48q1.5,3.33,3.33,6.85c.58,1.13,1.17,2.27,1.81,3.42,1.15,2.11,2.42,4.28,3.75,6.47.6,1,1.24,2,1.9,3.07v0c.57.91,1.17,1.81,1.79,2.73q1.41,2.11,2.95,4.23c.49.66,1,1.32,1.47,2s1,1.32,1.51,2,1.07,1.33,1.61,2,1.07,1.33,1.64,2c1.08,1.32,2.25,2.68,3.42,4,3,3.33,6.15,6.64,9.59,9.88,1.38,1.3,2.79,2.59,4.28,3.87,1.28,1.11,2.84,2.46,4.68,3.91l2.52,2c.62.49,1.28,1,2,1.49.53.41,1.1.84,1.7,1.26s1.18.85,1.8,1.28c1.34.94,2.75,1.9,4.25,2.86,1.9,1.23,3.91,2.49,6.06,3.78A155.33,155.33,0,0,0,129.32,287a157.83,157.83,0,0,0,77.32-8.91c1.08-.4,2.1-.83,3.16-1.25l2.31-1c2.07-.88,4.15-1.84,6.24-2.84s4.1-2,6.08-3.14c.81-.45,1.64-.9,2.46-1.37.58-.32,1.17-.64,1.75-1a6.12,6.12,0,0,0,.69-.43c1.6-.95,3.21-1.92,4.78-2.92s3.11-2,4.63-3.12,3-2.14,4.53-3.24c1.73-1.28,3.39-2.6,5-3.93l1.8-1.48.4-.34c.54-.49,1.08-1,1.65-1.43.75-.64,1.47-1.3,2.18-2l2.14-2c1.52-1.41,3-2.86,4.42-4.33.92-.94,1.81-1.9,2.68-2.84.7-.77,1.41-1.54,2.09-2.31a162.73,162.73,0,0,0,24.71-37.29c.36-.72.7-1.45,1-2.14.75-1.6,1.43-3.18,2.07-4.67.73-1.75,1.39-3.42,2-5,.53-1.34,1-2.6,1.39-3.78.15-.38.27-.77.4-1.15s.26-.73.37-1.07c.4-1.19.75-2.27,1-3.18.19-.69.39-1.3.54-1.82.21-.7.42-1.47.66-2.31.36-1.26.71-2.64,1.07-4.16.11-.49.24-1,.36-1.56.41-1.71.82-3.59,1.2-5.6.15-.66.26-1.32.38-2,.18-1,.35-1.95.5-2.91a4.49,4.49,0,0,1,.13-.79q.25-1.5.45-3c.25-1.81.49-3.69.68-5.66.11-1.07.22-2.14.3-3.27s.17-2.32.24-3.52.13-2.37.17-3.59v-5.9A9.69,9.69,0,0,0,305.38,130.67Z"/><path id="Path_343" data-name="Path 343" class="cls-4" d="M279.22,130.05a10.62,10.62,0,0,0-.05-1.26,6,6,0,0,0,0-.85,126.58,126.58,0,0,0-4.4-28.08c-.32-1.16-.66-2.29-1-3.4L273,94.13c-.21-.66-.45-1.32-.69-2v-.08c-.27-.79-.57-1.56-.85-2.31A128.59,128.59,0,0,0,22,133.84h0a130.55,130.55,0,0,0,2.15,23.6,128.77,128.77,0,0,0,93.23,100.68c2.14.58,4.35,1.07,6.55,1.56.75.15,1.48.3,2.23.43.91.19,1.83.34,2.75.54h.28q2.53.42,5.1.75c1.71.21,3.42.38,5.15.53,3.75.32,7.56.5,11.36.5,1,0,2,0,3.07-.05H154c1.07,0,2.16-.06,3.26-.12,2.46-.13,4.89-.3,7.35-.58,1.13-.13,2.27-.26,3.4-.41a128.66,128.66,0,0,0,85.72-50.5c.7-.94,1.38-1.9,2.07-2.86s1.43-2.12,2.14-3.18c.49-.78,1-1.54,1.45-2.31s1-1.54,1.41-2.33c.77-1.28,1.51-2.56,2.2-3.85a126.67,126.67,0,0,0,16.27-62.44v-.53C279.28,132.21,279.26,131.12,279.22,130.05Z"/><g id="Group_39" data-name="Group 39"><path id="Path_345" data-name="Path 345" class="cls-2" d="M205.13,190.36c-1.7-4.15-3.44-8.31-5.33-12.4a5.88,5.88,0,0,0-7.28-4h0l-.48.16c-5.08,1.17-10.05,2.71-15.12,3.75a57,57,0,0,1-29.28-.82,34.56,34.56,0,0,1-22.54-23.93h32.87a4.64,4.64,0,0,0,4.66-4.62h0V138.14a4.64,4.64,0,0,0-4.62-4.66H121.91V125h36a4.65,4.65,0,0,0,4.66-4.64h0V110a4.65,4.65,0,0,0-4.63-4.66H126.45a.42.42,0,0,1,.06-.31A33.5,33.5,0,0,1,144.83,86a55,55,0,0,1,32.09-1.83c5.13,1,10.18,2.62,15.3,3.78a5.77,5.77,0,0,0,7.41-3.37l.12-.33c1.85-4,3.55-8.12,5.25-12.25a6.16,6.16,0,0,0-2.31-8.41l0,0a5.46,5.46,0,0,0-.64-.32,18.91,18.91,0,0,0-2.84-1.35,88.74,88.74,0,0,0-47-5.55,67,67,0,0,0-31.13,12.86,68.24,68.24,0,0,0-23.4,34.63l-.53,1.61H81a4.66,4.66,0,0,0-4.66,4.63v10.38A4.64,4.64,0,0,0,81,125.09H93.71v8.44H81a4.66,4.66,0,0,0-4.66,4.64v10.38A4.65,4.65,0,0,0,81,153.21H96.32c1.16,3.77,2.14,7.62,3.62,11.25a63.77,63.77,0,0,0,40.43,38.47,83.39,83.39,0,0,0,48.89.6,81.89,81.89,0,0,0,12.5-4.54,6,6,0,0,0,3.83-7.52A6.67,6.67,0,0,0,205.13,190.36Z"/></g></g></g></g></svg>