<svg xmlns="http://www.w3.org/2000/svg" xmlns:xlink="http://www.w3.org/1999/xlink" width="264.755" height="99.09" viewBox="0 0 264.755 99.09"><defs><style>.a,.b,.c,.d{isolation:isolate;}.b,.c,.f{fill:#009fe3;}.b{font-size:71px;font-family:Rubik-Bold, Rubik;font-weight:700;}.c{font-size:21px;font-family:Rubik-Light, Rubik;font-weight:300;}.d{fill:url(#a);}.e{fill:none;stroke:#009fe3;stroke-width:6px;}</style><linearGradient id="a" x1="0.059" y1="0.954" x2="1.088" y2="0.223" gradientUnits="objectBoundingBox"><stop offset="0" stop-color="#009fe3" stop-opacity="0.6"/><stop offset="0.24" stop-color="#009fe3" stop-opacity="0.4"/><stop offset="0.7" stop-color="#8bd8f6" stop-opacity="0.259"/><stop offset="1" stop-color="#ccf2ff" stop-opacity="0.2"/></linearGradient></defs><g transform="translate(0 19.23)"><g transform="translate(0 -19.23)"><g transform="translate(108.755)"><g class="a"><text class="b" transform="translate(0 66)"><tspan x="0" y="0">MKB</tspan></text></g><g class="a" transform="translate(34.473 74.09)"><text class="c" transform="translate(0 20)"><tspan x="0" y="0">Financiering</tspan></text></g></g><path class="d" d="M97.667,63.374c0-.24,0-.483-.022-.739s0-.531-.026-.8l-.083-1.251c-.035-.416-.067-.835-.109-1.25-.035-.361-.077-.726-.125-1.087-.035-.291-.074-.588-.115-.88A47.209,47.209,0,0,0,95.419,49.5c-.138-.445-.294-.857-.445-1.279-.035-.09-.061-.173-.09-.262s-.048-.134-.077-.2c-.144-.4-.285-.793-.435-1.174-.109-.294-.221-.582-.342-.867s-.233-.576-.355-.857c-.278-.64-.576-1.279-.873-1.919-.32-.684-.672-1.359-1.03-2s-.729-1.327-1.107-1.948c0-.019-.026-.048-.038-.074-.249-.4-.493-.8-.745-1.2l-.1-.173c-.185-.278-.371-.553-.553-.832s-.451-.64-.688-.959c-.185-.262-.368-.515-.56-.78-.048-.061-.09-.122-.138-.186-.24-.32-.477-.64-.723-.94q-.959-1.2-1.791-2.146l-.515-.572c-.019-.029-.048-.048-.067-.077-2.485,1.391-68.17,36.5-77.013,40.876Q3.863,73.858,0,75.745c.061.269.138.563.221.883s.17.675.285,1.052l.144.512c.077.253.157.515.24.774s.192.595.294.908c.067.211.144.422.224.64s.131.368.2.553c.118.342.246.675.384,1.027.342.857.716,1.769,1.148,2.712Q3.617,85.87,4.2,87c.185.361.374.726.579,1.094.368.675.774,1.369,1.2,2.069.192.32.4.64.608.982v.016c.182.291.374.579.572.873q.451.678.943,1.353c.157.211.32.422.47.64s.32.422.483.64.342.425.515.64.342.425.525.64c.345.422.72.857,1.094,1.279.959,1.065,1.967,2.124,3.067,3.16.441.416.892.828,1.369,1.238.409.355.908.787,1.5,1.251l.806.64c.2.157.409.32.64.477.17.131.352.269.544.4s.377.272.576.409c.429.3.88.608,1.359.915.608.393,1.251.8,1.938,1.209a49.677,49.677,0,0,0,18.374,6.46,50.474,50.474,0,0,0,24.729-2.85c.345-.128.672-.265,1.011-.4l.739-.32c.662-.281,1.327-.588,2-.908s1.311-.656,1.945-1c.259-.144.525-.288.787-.438.186-.1.374-.2.56-.32a2.293,2.293,0,0,0,.221-.138c.512-.3,1.027-.614,1.529-.934s.995-.64,1.481-1,.959-.684,1.449-1.036c.553-.409,1.084-.832,1.6-1.257l.576-.473.128-.109c.173-.157.345-.32.528-.457.24-.2.47-.416.7-.64l.684-.64c.486-.451.959-.915,1.414-1.385.294-.3.579-.608.857-.908.224-.246.451-.493.668-.739a52.15,52.15,0,0,0,7.9-11.926c.115-.23.224-.464.32-.684.24-.512.457-1.017.662-1.494.233-.56.445-1.094.64-1.6.17-.429.32-.832.445-1.209.048-.122.086-.246.128-.368s.083-.233.118-.342c.128-.381.24-.726.32-1.017.061-.221.125-.416.173-.582.067-.224.134-.47.211-.739.115-.4.227-.844.342-1.33.035-.157.077-.32.115-.5.131-.547.262-1.148.384-1.791.048-.211.083-.422.122-.64.058-.32.112-.624.16-.931a1.434,1.434,0,0,1,.042-.253q.082-.48.144-.959c.08-.579.157-1.18.217-1.81.035-.342.07-.684.1-1.046s.054-.742.077-1.126.042-.758.054-1.148V64.049A3.1,3.1,0,0,0,97.667,63.374Z" transform="translate(0 -14.969)"/><path class="e" d="M104.264,46.458a3.37,3.37,0,0,0-.016-.4,1.919,1.919,0,0,0,0-.272,40.425,40.425,0,0,0-1.407-8.981c-.1-.371-.211-.732-.32-1.087l-.246-.745c-.067-.211-.144-.422-.221-.64v-.026c-.086-.253-.182-.5-.272-.739A41.126,41.126,0,0,0,22,47.67h0a41.757,41.757,0,0,0,.688,7.549A41.183,41.183,0,0,0,52.5,87.418c.684.185,1.391.342,2.095.5.24.048.473.1.713.138.291.061.585.109.88.173a.288.288,0,0,1,.09,0q.809.134,1.631.24c.547.067,1.094.122,1.647.17,1.2.1,2.418.16,3.633.16.32,0,.64,0,.982-.016h.042c.342,0,.691-.019,1.043-.038.787-.042,1.564-.1,2.351-.185.361-.042.726-.083,1.087-.131A41.148,41.148,0,0,0,96.112,72.274c.224-.3.441-.608.662-.915s.457-.678.684-1.017c.157-.249.32-.493.464-.739s.32-.493.451-.745q.371-.614.7-1.231a40.512,40.512,0,0,0,5.2-19.97v-.17C104.283,47.149,104.277,46.8,104.264,46.458Z" transform="translate(-14.964 1.748)"/><g transform="translate(24.415 24.297)"><path class="f" d="M117.53,99.94c-.544-1.327-1.1-2.658-1.7-3.966a1.881,1.881,0,0,0-2.341-1.279,1.438,1.438,0,0,0-.154.051c-1.625.374-3.214.867-4.836,1.2a18.23,18.23,0,0,1-9.364-.262,11.053,11.053,0,0,1-7.209-7.653h10.513a1.484,1.484,0,0,0,1.49-1.481v-3.31a1.484,1.484,0,0,0-1.481-1.49H90.914v-2.7h11.514a1.487,1.487,0,0,0,1.49-1.484v-3.32a1.487,1.487,0,0,0-1.481-1.49H92.366a.15.15,0,0,1,.019-.1,10.7,10.7,0,0,1,5.859-6.1,17.59,17.59,0,0,1,10.263-.585c1.641.32,3.256.838,4.893,1.209a1.845,1.845,0,0,0,2.37-1.078l.038-.106c.592-1.279,1.135-2.6,1.679-3.918a1.973,1.973,0,0,0-.748-2.7,1.746,1.746,0,0,0-.2-.1,6.048,6.048,0,0,0-.908-.432A28.384,28.384,0,0,0,100.6,57.071a21.428,21.428,0,0,0-9.956,4.113,21.825,21.825,0,0,0-7.484,11.075l-.17.515H77.83a1.487,1.487,0,0,0-1.49,1.481v3.32a1.487,1.487,0,0,0,1.484,1.49H81.9v2.7H77.83a1.49,1.49,0,0,0-1.49,1.484v3.32a1.49,1.49,0,0,0,1.484,1.49H82.73c.371,1.206.684,2.437,1.158,3.6a20.4,20.4,0,0,0,12.93,12.3,26.67,26.67,0,0,0,15.636.192,25.946,25.946,0,0,0,4-1.452,1.919,1.919,0,0,0,1.225-2.405A1.976,1.976,0,0,0,117.53,99.94Z" transform="translate(-76.34 -56.742)"/></g></g></g></svg>