<svg xmlns="http://www.w3.org/2000/svg" width="18" height="12" viewBox="0 0 18 12"><defs><style>.a{fill:#e5646e;}.b{fill:#db4655;}.c{fill:#5055a0;}.d{fill:#3f3f8f;}.e{fill:#f2f2f6;}.f{fill:#e1e1e6;}</style></defs><g transform="translate(0 -90.839)"><g transform="translate(0 90.839)"><g transform="translate(0 0)"><path class="a" d="M25.384,94.9v-3.45a.6.6,0,0,0-.58-.609H7.978l-.311.609V94.9l.6.812H24.514Z" transform="translate(-7.384 -90.839)"/><path class="b" d="M0,91.448V94.9l.609.541v-4.6A.609.609,0,0,0,0,91.448Z" transform="translate(0 -90.839)"/><path class="c" d="M7.817,289.844v3.186a.6.6,0,0,0,.58.609H24.949l.58-.345v-3.45l-.87-.812H8.413Z" transform="translate(-7.529 -281.903)"/><path class="d" d="M.581,298.538v-2.165L0,296.914v3.45a.6.6,0,0,0,.581.609H17.419a.6.6,0,0,0,.581-.609H2.323a1.786,1.786,0,0,1-1.742-1.826Z" transform="translate(0 -288.973)"/><path class="e" d="M8.667,204.487l.276.518h17.4v-4.059H8.943l-.276.641Z" transform="translate(-8.348 -196.975)"/><path class="f" d="M0,200.946H.609V205H0Z" transform="translate(0 -196.975)"/></g></g></g></svg>