<svg xmlns="http://www.w3.org/2000/svg" width="18.847" height="26.434" viewBox="0 0 18.847 26.434"><defs><style>.a{fill:#9597ac;stroke:#9597ac;stroke-width:0.3px;}</style></defs><path class="a" d="M19.482,1h-.416a9.065,9.065,0,0,0-6.41,15.475l1.756,1.756a3.622,3.622,0,0,1,1.053,2.242,1.258,1.258,0,0,0,.109,2.4,1.253,1.253,0,0,0,.773,1.665,2.949,2.949,0,0,0,5.856,0,1.253,1.253,0,0,0,.773-1.665,1.258,1.258,0,0,0,.109-2.4,3.619,3.619,0,0,1,1.053-2.242l1.756-1.756A9.065,9.065,0,0,0,19.482,1Zm-.208,25.291a2.112,2.112,0,0,1-2.065-1.686h4.13A2.112,2.112,0,0,1,19.274,26.291ZM21.8,23.762H16.744a.422.422,0,0,1,0-.843H21.8a.422.422,0,0,1,0,.843Zm.843-1.686H15.9a.422.422,0,1,1,0-.843h6.744a.422.422,0,1,1,0,.843Zm2.65-6.2L23.54,17.635a4.456,4.456,0,0,0-1.3,2.755H19.7V15.753H20.96A2.954,2.954,0,0,0,23.91,12.8v-.422H21.8a2.941,2.941,0,0,0-2.108.889V11.111A2.1,2.1,0,0,0,23.067,9.43a2.115,2.115,0,0,0-.04-.4,2.1,2.1,0,0,0,0-3.419,2.141,2.141,0,0,0,.04-.4,2.107,2.107,0,0,0-3.794-1.263,2.1,2.1,0,0,0-3.754,1.66,2.1,2.1,0,0,0,0,3.419,2.141,2.141,0,0,0-.04.4,2.1,2.1,0,0,0,3.372,1.681V15.8a2.939,2.939,0,0,0-2.108-.89H14.637v.422a2.954,2.954,0,0,0,2.951,2.951h1.265V20.39H16.3a4.454,4.454,0,0,0-1.3-2.755l-1.756-1.756A8.223,8.223,0,0,1,19.065,1.843h.416A8.222,8.222,0,0,1,25.3,15.879Zm-5.558-.969A2.111,2.111,0,0,1,21.8,13.224h1.222A2.111,2.111,0,0,1,20.96,14.91ZM16.327,9.388a2.1,2.1,0,0,0,.924-.019l-.2-.818a1.264,1.264,0,0,1-1.187-2.132,2.106,2.106,0,0,0,1.726.9V6.48a1.265,1.265,0,1,1,1.265-1.265V9.43a1.265,1.265,0,1,1-2.529,0C16.323,9.416,16.326,9.4,16.327,9.388ZM22.22,5.257a2.1,2.1,0,0,0-.924.019l.2.818a1.264,1.264,0,0,1,1.187,2.132,2.106,2.106,0,0,0-1.726-.9v.843A1.265,1.265,0,1,1,19.7,9.43V5.215a1.265,1.265,0,1,1,2.529,0c0,.014,0,.028,0,.042ZM18.809,17.439H17.587a2.111,2.111,0,0,1-2.065-1.686h1.222A2.111,2.111,0,0,1,18.809,17.439Z" transform="translate(-9.85 -0.85)"/></svg>