<svg xmlns="http://www.w3.org/2000/svg" width="54.079" height="51.544" viewBox="0 0 54.079 51.544"><defs><style>.a{fill:#55b364;}.b{fill:#151a6a;}</style></defs><path class="a" d="M28.427,23.573a.845.845,0,0,1-.845-.845V18.094H19.464a2.535,2.535,0,0,0-2.535,2.535V53.081a2.535,2.535,0,0,0,2.535,2.535h34.7A2.535,2.535,0,0,0,56.7,53.081V23.573ZM49.994,40.822a1.7,1.7,0,0,1-1.748,1.69h-.37a11.379,11.379,0,0,1-1.191,2.894l.286.321a1.69,1.69,0,0,1,0,2.39l-1.736,1.736a1.7,1.7,0,0,1-2.43-.04l-.262-.262a11.407,11.407,0,0,1-2.889,1.2.041.041,0,0,0-.014.006l-.01.422a1.69,1.69,0,0,1-1.69,1.69H35.484a1.7,1.7,0,0,1-1.69-1.747v-.371a11.352,11.352,0,0,1-2.894-1.19l-.321.286a1.688,1.688,0,0,1-2.39,0l-1.736-1.732a1.7,1.7,0,0,1,.041-2.431l.26-.26a11.42,11.42,0,0,1-1.2-2.891l-.432-.025a1.69,1.69,0,0,1-1.69-1.69V38.367a1.7,1.7,0,0,1,1.747-1.69h.372a11.4,11.4,0,0,1,1.189-2.894l-.286-.321a1.69,1.69,0,0,1,0-2.39l1.736-1.734a1.752,1.752,0,0,1,1.218-.49,1.769,1.769,0,0,1,1.212.529l.262.263a11.363,11.363,0,0,1,2.889-1.2L33.794,28a1.69,1.69,0,0,1,1.69-1.69h2.456a1.7,1.7,0,0,1,1.69,1.747v.371a11.416,11.416,0,0,1,2.894,1.19l.322-.286a1.69,1.69,0,0,1,2.39,0l1.736,1.736a1.7,1.7,0,0,1-.04,2.431l-.26.26a11.456,11.456,0,0,1,1.2,2.891l.432.025a1.69,1.69,0,0,1,1.69,1.69Z" transform="translate(-2.624 -4.072)"/><ellipse class="a" cx="5.709" cy="5.709" rx="5.709" ry="5.709" transform="translate(28.379 29.813)"/><path class="a" d="M31.536,18.094H45.06v3.789H31.536Z" transform="translate(-4.889 -4.072)"/><path class="a" d="M49.541,21.883H61.759V20.629a2.535,2.535,0,0,0-2.535-2.535H49.541Z" transform="translate(-7.68 -4.072)"/><g transform="translate(0 0)"><path class="b" d="M37.636,1.5H2.535A2.535,2.535,0,0,0,0,4.035V40.2a2.535,2.535,0,0,0,2.535,2.535h35.1A2.535,2.535,0,0,0,40.171,40.2V4.035A2.535,2.535,0,0,0,37.636,1.5Zm.845,38.7a.845.845,0,0,1-.845.845H2.535A.845.845,0,0,1,1.69,40.2V8.788H38.481Zm0-33.1H1.69V4.035a.845.845,0,0,1,.845-.845h35.1a.845.845,0,0,1,.845.845Z" transform="translate(0 -1.5)"/><path class="b" d="M4.845,27.362H36.566a.845.845,0,0,0,.845-.845V18.939a.845.845,0,0,0-.845-.845H4.845A.845.845,0,0,0,4,18.939v7.578A.845.845,0,0,0,4.845,27.362Zm.845-7.578H35.721v5.888H5.69Z" transform="translate(-0.62 -4.072)"/><ellipse class="b" cx="0.845" cy="0.845" rx="0.845" ry="0.845" transform="translate(4.225 2.799)"/><path class="b" d="M6.012,14.8h4.365a.845.845,0,1,0,0-1.69H6.012a.845.845,0,1,0,0,1.69Z" transform="translate(-0.801 -3.3)"/><path class="b" d="M37.012,14.8h4.365a.845.845,0,1,0,0-1.69H37.012a.845.845,0,1,0,0,1.69Z" transform="translate(-5.607 -3.3)"/><path class="b" d="M26.678,14.8h4.366a.845.845,0,1,0,0-1.69H26.678a.845.845,0,1,0,0,1.69Z" transform="translate(-4.005 -3.3)"/><ellipse class="b" cx="0.845" cy="0.845" rx="0.845" ry="0.845" transform="translate(19.646 24.682)"/><ellipse class="b" cx="0.845" cy="0.845" rx="0.845" ry="0.845" transform="translate(16.393 24.682)"/><ellipse class="b" cx="0.845" cy="0.845" rx="0.845" ry="0.845" transform="translate(22.899 24.682)"/><path class="b" d="M4.845,44.449H22.27a.845.845,0,0,0,.845-.845V35.2a.845.845,0,0,0-.845-.845H4.845A.845.845,0,0,0,4,35.2v8.4A.845.845,0,0,0,4.845,44.449Zm.845-8.4H21.425v6.707H5.69Z" transform="translate(-0.62 -6.594)"/></g></svg>