<svg xmlns="http://www.w3.org/2000/svg" width="44.752" height="34.943" viewBox="0 0 44.752 34.943"><defs><style>.a{fill:#5694e8;}</style></defs><g transform="translate(0 -56)"><path class="a" d="M32.657,89.314a.658.658,0,1,0-.464-.193A.659.659,0,0,0,32.657,89.314Z" transform="translate(-29.198 -29.198)"/><path class="a" d="M56.657,89.314a.658.658,0,1,0-.464-.193A.659.659,0,0,0,56.657,89.314Z" transform="translate(-51.096 -29.198)"/><path class="a" d="M80.657,89.314a.658.658,0,1,0-.464-.193A.659.659,0,0,0,80.657,89.314Z" transform="translate(-72.994 -29.198)"/><path class="a" d="M112.657,89.314H139.28a.657.657,0,0,0,0-1.314H112.657a.657.657,0,0,0,0,1.314Z" transform="translate(-102.191 -29.198)"/><path class="a" d="M448.657,89.314h1.4a.657.657,0,0,0,0-1.314h-1.4a.657.657,0,0,0,0,1.314Z" transform="translate(-408.765 -29.198)"/><path class="a" d="M63.37,168H49.357A1.359,1.359,0,0,0,48,169.357v2.8a1.359,1.359,0,0,0,1.357,1.357H63.37a1.359,1.359,0,0,0,1.357-1.357v-2.8A1.359,1.359,0,0,0,63.37,168Zm.044,4.16a.044.044,0,0,1-.044.044H49.357a.044.044,0,0,1-.044-.044v-2.8a.044.044,0,0,1,.044-.044H63.37a.044.044,0,0,1,.044.044Z" transform="translate(-43.796 -102.191)"/><path class="a" d="M346.465,177.4H342.11a2.057,2.057,0,0,0-3.9,0h-1.553a.657.657,0,0,0,0,1.314h1.553a2.057,2.057,0,0,0,3.9,0h4.356a.657.657,0,0,0,0-1.314Zm-6.306,1.4a.744.744,0,1,1,.744-.744A.745.745,0,0,1,340.16,178.8Z" transform="translate(-306.574 -109.491)"/><path class="a" d="M258.759,168a2.759,2.759,0,1,0,2.759,2.759A2.762,2.762,0,0,0,258.759,168Zm0,4.2a1.445,1.445,0,1,1,1.445-1.445A1.447,1.447,0,0,1,258.759,172.2Z" transform="translate(-233.58 -102.191)"/><path class="a" d="M63.37,256H49.357A1.359,1.359,0,0,0,48,257.357v2.8a1.359,1.359,0,0,0,1.357,1.357H63.37a1.359,1.359,0,0,0,1.357-1.357v-2.8A1.359,1.359,0,0,0,63.37,256Zm.044,4.16a.044.044,0,0,1-.044.044H49.357a.044.044,0,0,1-.044-.044v-2.8a.044.044,0,0,1,.044-.044H63.37a.044.044,0,0,1,.044.044Z" transform="translate(-43.796 -182.485)"/><path class="a" d="M346.465,265.4h-.853a2.057,2.057,0,0,0-3.9,0h-5.056a.657.657,0,1,0,0,1.314h5.056a2.057,2.057,0,0,0,3.9,0h.853a.657.657,0,1,0,0-1.314Zm-2.8,1.4a.744.744,0,1,1,.744-.744A.745.745,0,0,1,343.663,266.8Z" transform="translate(-306.574 -189.784)"/><path class="a" d="M258.759,256a2.759,2.759,0,1,0,2.759,2.759A2.762,2.762,0,0,0,258.759,256Zm0,4.2a1.445,1.445,0,1,1,1.445-1.445A1.447,1.447,0,0,1,258.759,260.2Z" transform="translate(-233.58 -182.485)"/><path class="a" d="M63.37,344H49.357A1.359,1.359,0,0,0,48,345.357v2.8a1.359,1.359,0,0,0,1.357,1.357H63.37a1.359,1.359,0,0,0,1.357-1.357v-2.8A1.359,1.359,0,0,0,63.37,344Zm.044,4.16a.044.044,0,0,1-.044.044H49.357a.044.044,0,0,1-.044-.044v-2.8a.044.044,0,0,1,.044-.044H63.37a.044.044,0,0,1,.044.044Z" transform="translate(-43.796 -262.778)"/><path class="a" d="M346.465,353.4H342.81a2.057,2.057,0,0,0-3.9,0h-2.253a.657.657,0,1,0,0,1.314h2.253a2.057,2.057,0,0,0,3.9,0h3.655a.657.657,0,1,0,0-1.314Zm-5.605,1.4a.744.744,0,1,1,.744-.744A.745.745,0,0,1,340.86,354.8Z" transform="translate(-306.574 -270.077)"/><path class="a" d="M258.759,344a2.759,2.759,0,1,0,2.759,2.759A2.762,2.762,0,0,0,258.759,344Zm0,4.2a1.445,1.445,0,1,1,1.445-1.445A1.447,1.447,0,0,1,258.759,348.2Z" transform="translate(-233.58 -262.778)"/><path class="a" d="M41.293,56H3.459A3.463,3.463,0,0,0,0,59.459V87.484a3.463,3.463,0,0,0,3.459,3.459H41.293a3.463,3.463,0,0,0,3.459-3.459V59.459A3.463,3.463,0,0,0,41.293,56ZM3.459,57.314H41.293a2.148,2.148,0,0,1,2.146,2.146V61.6H1.314V59.459A2.148,2.148,0,0,1,3.459,57.314ZM41.293,89.63H3.459a2.148,2.148,0,0,1-2.146-2.146V62.919H43.438V87.484A2.148,2.148,0,0,1,41.293,89.63Z" transform="translate(0)"/></g></svg>