<svg xmlns="http://www.w3.org/2000/svg" width="29.508" height="28.696" viewBox="0 0 29.508 28.696"><defs><style>.a{fill:#9597ac;}</style></defs><g transform="translate(0 -0.536)"><path class="a" d="M21.024,15.239V11.519l1.322.682.809-1.487-3.549-1.83V6.493H17.877v1.5l-3.006-1.55-1.307.713V4A3.558,3.558,0,0,0,6.452,4V6.207a3.6,3.6,0,0,0-1.927-.555A3.514,3.514,0,0,0,.968,9.114v5.675a3.451,3.451,0,0,0,1.825,3.022C1.918,18.372,0,19.933,0,19.933v9.3H29.508V19.98l-.287-.251a21.838,21.838,0,0,0-8.2-4.49Zm6.756,7.644-.058-.057A18.782,18.782,0,0,0,5.379,20.066V18.272a20.439,20.439,0,0,1,22.4,2.463ZM14.895,8.359l4.4,2.269V14.8a22.3,22.3,0,0,0-3.4-.44V12.35H14.168v1.99a22.328,22.328,0,0,0-3.305.33V13.033a3.487,3.487,0,0,0,2.7-3.36V9.084ZM8.18,4a1.829,1.829,0,0,1,3.656,0V9.673a1.829,1.829,0,0,1-3.656,0ZM2.7,9.114a1.829,1.829,0,0,1,3.656,0v5.675a1.829,1.829,0,0,1-3.656,0Zm5.385,5.675V12.58a3.589,3.589,0,0,0,1.054.449v2.017q-.556.144-1.1.316a3.379,3.379,0,0,0,.05-.573Zm-4.43,4.487V21.2a18.51,18.51,0,0,0-1.917,1.627l-.006.006V20.692A19.944,19.944,0,0,1,3.651,19.276ZM23,27.425A11.92,11.92,0,0,0,6.489,27.4l-.029-.028c-.061.059-.122.12-.182.181H4.2a13.37,13.37,0,0,1,10.528-5.03,13.371,13.371,0,0,1,10.529,5.03H23.123L23,27.425Zm-2.516.125H8.975a10.2,10.2,0,0,1,11.506,0Zm6.893,0a14.87,14.87,0,0,0-2.015-2.425,15.326,15.326,0,0,0-21.263,0A14.873,14.873,0,0,0,2.082,27.55H1.728v-2.2a16.735,16.735,0,0,1,13-6.08A16.736,16.736,0,0,1,27.78,25.411V27.55Z"/></g></svg>