<svg xmlns="http://www.w3.org/2000/svg" width="24.381" height="23.71" viewBox="0 0 24.381 23.71"><defs><style>.a{fill:#fff;}</style></defs><g transform="translate(0 -0.536)"><path class="a" d="M17.371,12.684V9.611l1.092.563.668-1.228L16.2,7.434V5.458H14.771V6.7L12.287,5.417l-1.08.589V3.4a2.939,2.939,0,0,0-5.877,0V5.222a2.978,2.978,0,0,0-1.593-.458A2.9,2.9,0,0,0,.8,7.624v4.689a2.851,2.851,0,0,0,1.508,2.5C1.585,15.273,0,16.562,0,16.562v7.684H24.381V16.6l-.237-.207a18.044,18.044,0,0,0-6.773-3.71ZM22.953,19l-.048-.047a15.518,15.518,0,0,0-18.461-2.28V15.19a16.887,16.887,0,0,1,18.509,2.035ZM12.307,7l3.636,1.875v3.451a18.425,18.425,0,0,0-2.808-.364V10.3H11.707v1.645a18.448,18.448,0,0,0-2.731.272V10.862a2.881,2.881,0,0,0,2.232-2.777V7.6ZM6.759,3.4a1.511,1.511,0,0,1,3.021,0V8.085a1.511,1.511,0,0,1-3.021,0ZM2.228,7.624a1.511,1.511,0,0,1,3.021,0v4.689a1.511,1.511,0,0,1-3.021,0Zm4.449,4.689V10.487a2.965,2.965,0,0,0,.871.371v1.666q-.459.119-.912.261a2.792,2.792,0,0,0,.041-.473ZM3.017,16.02v1.589a15.294,15.294,0,0,0-1.584,1.344l-.005.005V17.19A16.479,16.479,0,0,1,3.017,16.02ZM19,22.753a9.849,9.849,0,0,0-13.64-.023l-.024-.023c-.05.049-.1.1-.15.15H3.47a11.047,11.047,0,0,1,8.7-4.156,11.047,11.047,0,0,1,8.7,4.156H19.1l-.1-.1Zm-2.079.1H7.416a8.428,8.428,0,0,1,9.507,0Zm5.7,0a12.286,12.286,0,0,0-1.665-2,12.663,12.663,0,0,0-17.568,0,12.289,12.289,0,0,0-1.665,2H1.428v-1.82a13.827,13.827,0,0,1,10.741-5.024,13.828,13.828,0,0,1,10.784,5.076v1.768Z" transform="translate(0)"/></g></svg>