<svg xmlns="http://www.w3.org/2000/svg" width="27.338" height="24.337" viewBox="0 0 27.338 24.337"><defs><style>.a{fill:#65687e;}</style></defs><g transform="translate(0 -0.013)"><path class="a" d="M27.32.238A.5.5,0,0,0,27.3.173V.162A.4.4,0,0,0,27.249.1a.388.388,0,0,0-.07-.055h-.02L27.1.016h-.022a.348.348,0,0,0-.09,0H8.959a.369.369,0,0,0-.3.151L.06,11.745a.357.357,0,0,0-.045.08v.019a.447.447,0,0,0-.015.07v1.743a.371.371,0,0,0,.371.371H9.382V22.5H7.75a1.483,1.483,0,0,0-1.483,1.482.371.371,0,0,0,.371.371h8.254a.371.371,0,0,0,.371-.371A1.484,1.484,0,0,0,13.78,22.5H12.148V14.032h7.577a.325.325,0,0,0,.087,0h.022l.057-.022L19.916,14a.334.334,0,0,0,.054-.039h.015a.373.373,0,0,0,.053-.067L27.281,2.149a.382.382,0,0,0,.055-.2V.34a.484.484,0,0,0,0-.082ZM21.028,9.172H17.97l1.074-1.588H22.01ZM12.21,11.6l1.174-1.681h3.189L15.439,11.6ZM4.052,7.585H6.341L5.2,9.172H2.877ZM5.783,5.257H8.027L6.883,6.844H4.6ZM7.53,2.9h2.2L8.564,4.515H6.339ZM14.972.71,13.965,2.156H11.184L12.227.71Zm3.936,0L17.9,2.156H14.866L15.881.71Zm3.886,0L21.8,2.156h-3L19.809.71ZM10.2,7.585,9.09,9.172H6.124L7.268,7.585ZM7.8,6.844,8.949,5.257H11.8L10.69,6.844Zm3.3.74h3.016L13.009,9.172H9.985Zm.517-.74,1.1-1.588h3.009L14.62,6.844Zm1.619-2.329L14.361,2.9h3.017L16.247,4.515Zm3.41.741h3.076L18.648,6.844H15.526Zm.517-.741L18.292,2.9H21.32L20.228,4.515ZM13.454,2.9,12.322,4.515H9.473L10.641,2.9ZM5.577,9.914h2.99L7.4,11.6H4.366Zm3.892,0h3.01L11.3,11.6h-3ZM13.9,9.172l1.107-1.588h3.14L17.075,9.172ZM22.48,6.844H19.543l1.072-1.588h2.85Zm1.448-2.329H21.118L22.211,2.9H24.93ZM25.4,2.156H22.712L23.7.71h2.61ZM9.147.71h2.158L10.262,2.156H8.077Zm-6.819,9.2H4.663L3.449,11.6H1.083ZM13.776,23.237a.743.743,0,0,1,.648.375H7.1a.743.743,0,0,1,.648-.375ZM11.4,22.5H10.124V14.032H11.4Zm7.941-9.205H.72v-.953H19.343Zm.166-1.7H16.333l1.136-1.681h3.1ZM26.583,1.85l-6.5,10.507v-.284l6.5-10.435Zm0,0"/></g></svg>