<svg xmlns="http://www.w3.org/2000/svg" width="25.347" height="30.515" viewBox="0 0 25.347 30.515"><defs><style>.a{fill:#55b364;stroke:#55b364;stroke-width:0.3px;}</style></defs><g transform="translate(-6.93 -2.055)"><path class="a" d="M28.716,17.231a3.3,3.3,0,1,1,3.3-3.3A3.3,3.3,0,0,1,28.716,17.231Zm0-5.6a2.3,2.3,0,1,0,2.3,2.3,2.3,2.3,0,0,0-2.3-2.3Z" transform="translate(-9.135 -4.196)"/><path class="a" d="M24.52,17.261h0a1.43,1.43,0,0,1-1.583-1.221l-.072-.595a6.028,6.028,0,0,1-1.233-.513l-.249.172a1.435,1.435,0,0,1-1.957-.278,1.436,1.436,0,0,1-.278-1.957l.173-.249a6,6,0,0,1-.513-1.232l-.622-.074a1.427,1.427,0,0,1-1.194-1.58,1.43,1.43,0,0,1,1.22-1.584l.6-.072a6,6,0,0,1,.513-1.233L19.147,6.6a1.436,1.436,0,0,1,.278-1.957,1.436,1.436,0,0,1,1.957-.278l.249.172a6.006,6.006,0,0,1,1.232-.513l.074-.622A1.427,1.427,0,0,1,24.519,2.2h0A1.43,1.43,0,0,1,26.1,3.425l.072.6a6,6,0,0,1,1.233.513l.25-.173a1.437,1.437,0,0,1,1.957.278A1.437,1.437,0,0,1,29.892,6.6l-.172.249a6,6,0,0,1,.513,1.232l.622.074a1.428,1.428,0,0,1,1.194,1.582,1.429,1.429,0,0,1-1.221,1.583l-.594.072a6.028,6.028,0,0,1-.513,1.233l.172.249a1.437,1.437,0,0,1-.278,1.957,1.435,1.435,0,0,1-1.957.278l-.249-.172a6,6,0,0,1-1.232.513l-.074.622A1.427,1.427,0,0,1,24.52,17.261ZM21.61,13.836a.5.5,0,0,1,.267.076,5.023,5.023,0,0,0,1.557.644.5.5,0,0,1,.387.429l.115.962c.014.2.307.31.584.31h0c.277,0,.57-.106.582-.283l.118-.988a.5.5,0,0,1,.387-.429,5.03,5.03,0,0,0,1.557-.644.5.5,0,0,1,.552.013l.534.369c.4.274,1.1-.439.833-.833l-.369-.534a.5.5,0,0,1-.013-.552,5.03,5.03,0,0,0,.644-1.557.5.5,0,0,1,.429-.387l.961-.115c.2-.014.31-.307.31-.584s-.106-.571-.283-.583l-.988-.118a.5.5,0,0,1-.429-.387A5.03,5.03,0,0,0,28.7,7.089a.5.5,0,0,1,.013-.552L29.081,6c.274-.4-.439-1.1-.833-.833l-.534.369a.5.5,0,0,1-.552.013,5.03,5.03,0,0,0-1.557-.644.5.5,0,0,1-.387-.429L25.1,3.517c-.014-.2-.308-.31-.585-.31h0c-.277,0-.57.106-.582.283l-.118.988a.5.5,0,0,1-.387.429,5.023,5.023,0,0,0-1.556.645.5.5,0,0,1-.552-.013l-.534-.369c-.4-.274-1.1.439-.833.833l.369.534a.5.5,0,0,1,.013.552A5.03,5.03,0,0,0,19.7,8.646a.5.5,0,0,1-.429.387l-.962.115c-.2.014-.31.308-.31.585s.106.57.283.582l.989.118a.5.5,0,0,1,.429.387,5.03,5.03,0,0,0,.644,1.557.5.5,0,0,1-.013.552l-.369.534c-.274.4.439,1.1.833.833l.534-.369A.5.5,0,0,1,21.61,13.836Z" transform="translate(-4.938)"/><path class="a" d="M32.067,37.393a4.513,4.513,0,0,0-3.809-4.4L25.679,32.6,23,30.824a.5.5,0,0,0-.7.139l-2.721,3.863-2.69-3.766-.067-.093a.5.5,0,0,0-.685-.123l-2.795,1.861c-.006,0-.009.01-.014.014l-2.537.452A4.5,4.5,0,0,0,7.08,37.644l.06,5.835a1.464,1.464,0,0,0,1.149,1.433,77.523,77.523,0,0,0,9.867,1.656,13.347,13.347,0,0,0,2.917-.02,78.941,78.941,0,0,0,9.932-1.874,1.462,1.462,0,0,0,1.122-1.447ZM24.911,33.3l-2.1,4.627-2.565-2.3,2.579-3.663ZM16.329,32l2.592,3.628-2.562,2.3-2.09-4.592Zm4.61,5.6-.5,1.423h-1.7L18.226,37.6l1.361-1.219Zm-12.8,5.873-.06-5.84a3.5,3.5,0,0,1,2.888-3.474l2.375-.423,2.383,5.235a.506.506,0,0,0,.793.165l.9-.807.493,1.369a.5.5,0,0,0,.169.227l-.352,5.6a82.851,82.851,0,0,1-9.219-1.592A.473.473,0,0,1,8.144,43.474ZM18.731,45.6l.35-5.567h1.01l.346,5.557c-.027,0-1.675.011-1.705.01Zm12.037-1.9a82.241,82.241,0,0,1-9.331,1.8l-.347-5.57a.5.5,0,0,0,.18-.241l.478-1.367.9.809a.507.507,0,0,0,.793-.166l2.418-5.33,2.242.34A3.51,3.51,0,0,1,31.063,37.4l.06,5.835a.47.47,0,0,1-.356.461Z" transform="translate(0 -14.218)"/></g></svg>