<svg xmlns="http://www.w3.org/2000/svg" width="21.741" height="26.165" viewBox="0 0 21.741 26.165"><defs><style>.a{fill:#fff;stroke:#fff;stroke-width:0.3px;}</style></defs><g transform="translate(-6.93 -2.055)"><path class="a" d="M28.24,16.28a2.827,2.827,0,1,1,2.827-2.827A2.827,2.827,0,0,1,28.24,16.28Zm0-4.795a1.968,1.968,0,1,0,1.968,1.968,1.968,1.968,0,0,0-1.968-1.968Z" transform="translate(-10.459 -4.804)"/><path class="a" d="M23.436,15.093h0a1.224,1.224,0,0,1-1.355-1.045l-.061-.509a5.16,5.16,0,0,1-1.055-.439l-.214.148a1.229,1.229,0,0,1-1.676-.238,1.229,1.229,0,0,1-.238-1.676l.148-.214a5.132,5.132,0,0,1-.439-1.055L18.013,10a1.221,1.221,0,0,1-1.022-1.353,1.224,1.224,0,0,1,1.044-1.356l.51-.061a5.135,5.135,0,0,1,.439-1.055l-.148-.214a1.229,1.229,0,0,1,.238-1.675A1.229,1.229,0,0,1,20.75,4.05l.214.148a5.141,5.141,0,0,1,1.055-.439l.064-.532A1.221,1.221,0,0,1,23.435,2.2h0a1.224,1.224,0,0,1,1.356,1.044l.061.51a5.135,5.135,0,0,1,1.055.439l.214-.148a1.23,1.23,0,0,1,1.675.238,1.23,1.23,0,0,1,.238,1.675l-.148.214a5.132,5.132,0,0,1,.439,1.055l.532.064A1.222,1.222,0,0,1,29.88,8.649,1.224,1.224,0,0,1,28.835,10l-.509.061a5.16,5.16,0,0,1-.439,1.055l.148.214A1.23,1.23,0,0,1,27.8,13.01a1.228,1.228,0,0,1-1.675.238l-.213-.148a5.131,5.131,0,0,1-1.055.439l-.064.533A1.222,1.222,0,0,1,23.436,15.093Zm-2.491-2.932a.431.431,0,0,1,.228.065,4.3,4.3,0,0,0,1.332.552.43.43,0,0,1,.331.367l.1.823c.012.175.263.265.5.265h0c.237,0,.488-.091.5-.242l.1-.846a.43.43,0,0,1,.331-.367,4.306,4.306,0,0,0,1.333-.552.429.429,0,0,1,.472.011l.457.316c.341.235.946-.376.713-.713l-.316-.457a.429.429,0,0,1-.011-.472,4.306,4.306,0,0,0,.552-1.332.43.43,0,0,1,.367-.331l.823-.1c.175-.012.265-.263.265-.5s-.091-.489-.242-.5l-.846-.1a.43.43,0,0,1-.367-.331,4.306,4.306,0,0,0-.552-1.332.429.429,0,0,1,.011-.472l.316-.457c.234-.341-.376-.945-.713-.713l-.457.316a.429.429,0,0,1-.472.011,4.306,4.306,0,0,0-1.333-.552.43.43,0,0,1-.331-.367l-.1-.823c-.012-.174-.263-.265-.5-.265h0c-.237,0-.488.091-.5.242l-.1.846a.43.43,0,0,1-.331.367,4.3,4.3,0,0,0-1.332.552A.429.429,0,0,1,20.7,5.06l-.457-.316c-.341-.235-.946.376-.713.713l.316.457a.429.429,0,0,1,.011.472,4.306,4.306,0,0,0-.552,1.332.43.43,0,0,1-.367.331l-.823.1c-.174.012-.265.263-.265.5s.091.488.242.5l.846.1a.43.43,0,0,1,.367.331,4.306,4.306,0,0,0,.552,1.333.429.429,0,0,1-.011.472l-.316.457c-.235.341.376.946.713.713l.457-.316A.428.428,0,0,1,20.945,12.161Z" transform="translate(-5.654)"/><path class="a" d="M28.469,36.435a3.863,3.863,0,0,0-3.26-3.77L23,32.331l-2.3-1.518a.429.429,0,0,0-.6.119l-2.329,3.307-2.3-3.224-.057-.079a.429.429,0,0,0-.586-.106l-2.392,1.593s-.007.009-.012.012l-2.172.387A3.854,3.854,0,0,0,7.08,36.65l.051,4.995a1.253,1.253,0,0,0,.983,1.226,66.361,66.361,0,0,0,8.446,1.417,11.425,11.425,0,0,0,2.5-.017,67.574,67.574,0,0,0,8.5-1.6,1.251,1.251,0,0,0,.96-1.238Zm-6.125-3.5-1.8,3.961-2.2-1.971,2.207-3.136ZM15,31.819l2.219,3.106L15.023,36.9l-1.789-3.931Zm3.946,4.793-.426,1.219H17.059l-.437-1.215,1.165-1.043ZM7.991,41.64l-.052-5a3,3,0,0,1,2.472-2.974l2.033-.362,2.04,4.481a.433.433,0,0,0,.679.141l.768-.691.422,1.172a.428.428,0,0,0,.145.194L16.2,43.4A70.92,70.92,0,0,1,8.3,42.034.405.405,0,0,1,7.991,41.64Zm9.063,1.817.3-4.765h.864l.3,4.757c-.023,0-1.434.01-1.46.009Zm10.3-1.623a70.4,70.4,0,0,1-7.987,1.545l-.3-4.768a.429.429,0,0,0,.154-.206l.409-1.17.771.693a.434.434,0,0,0,.679-.142l2.07-4.562,1.919.291a3,3,0,0,1,2.535,2.931l.052,4.995a.4.4,0,0,1-.3.395Z" transform="translate(0 -16.28)"/></g></svg>