<svg xmlns="http://www.w3.org/2000/svg" width="72.399" height="70.063" viewBox="0 0 72.399 70.063"><defs><style>.a{fill:#5694e8;}</style></defs><g transform="translate(0 -0.125)"><path class="a" d="M5.838,63.182H36.2V60.846H5.838a3.5,3.5,0,0,1-3.5-3.5V5.963a3.5,3.5,0,0,1,3.5-3.5h51.38a3.5,3.5,0,0,1,3.5,3.5V32.821h2.336V5.963A5.846,5.846,0,0,0,57.218.125H5.838A5.846,5.846,0,0,0,0,5.963v51.38A5.847,5.847,0,0,0,5.838,63.182Zm0,0"/><path class="a" d="M62.344,62.469h2.335V64.8H62.344Zm0,0" transform="translate(-57.673 -57.673)"/><path class="a" d="M124.676,62.469h2.336V64.8h-2.336Zm0,0" transform="translate(-115.334 -57.673)"/><path class="a" d="M187.016,62.469h2.336V64.8h-2.336Zm0,0" transform="translate(-173.003 -57.673)"/><path class="a" d="M62.344,124.8h53.715v2.336H62.344Zm0,0" transform="translate(-57.673 -115.334)"/><path class="a" d="M73.928,191.707l-2.966,2.966a5.857,5.857,0,1,0,1.651,1.651l2.966-2.966Zm-6.181,11.335a3.5,3.5,0,1,1,0-7.006,3.44,3.44,0,0,1,1.5.35l-2.326,2.326,1.651,1.651,2.328-2.325a3.438,3.438,0,0,1,.35,1.5A3.5,3.5,0,0,1,67.747,203.042Zm0,0" transform="translate(-57.238 -177.227)"/><path class="a" d="M264.941,249.484h19.851v2.335H264.941Zm0,0" transform="translate(-245.09 -230.676)"/><path class="a" d="M264.941,311.82h8.174v2.335h-8.174Zm0,0" transform="translate(-245.09 -288.341)"/><path class="a" d="M405.2,311.82h16.348v2.335H405.2Zm0,0" transform="translate(-374.842 -288.341)"/><path class="a" d="M561.047,249.484h11.677v2.335H561.047Zm0,0" transform="translate(-519.009 -230.676)"/><path class="a" d="M73.928,378.723l-2.966,2.966a5.857,5.857,0,1,0,1.651,1.651l2.966-2.966Zm-6.181,11.335a3.5,3.5,0,0,1,0-7.007,3.446,3.446,0,0,1,1.5.35l-2.326,2.327,1.651,1.651,2.328-2.325a3.44,3.44,0,0,1,.35,1.5A3.5,3.5,0,0,1,67.747,390.058Zm0,0" transform="translate(-57.238 -350.23)"/><path class="a" d="M264.941,436.492h19.851v2.336H264.941Zm0,0" transform="translate(-245.09 -403.671)"/><path class="a" d="M264.941,498.836h8.174v2.335h-8.174Zm0,0" transform="translate(-245.09 -461.344)"/><path class="a" d="M405.2,498.836h9.341v2.335H405.2Zm0,0" transform="translate(-374.842 -461.344)"/><path class="a" d="M561.047,436.492h4.671v2.336h-4.671Zm0,0" transform="translate(-519.009 -403.671)"/><path class="a" d="M73.928,565.738,70.962,568.7a5.856,5.856,0,1,0,1.651,1.651l2.966-2.966Zm-6.181,11.335a3.5,3.5,0,0,1,0-7.006,3.437,3.437,0,0,1,1.5.35l-2.326,2.327,1.651,1.651L70.9,572.07a3.441,3.441,0,0,1,.35,1.5A3.5,3.5,0,0,1,67.747,577.073Zm0,0" transform="translate(-57.238 -523.233)"/><path class="a" d="M264.941,623.512h15.18v2.336h-15.18Zm0,0" transform="translate(-245.09 -576.678)"/><path class="a" d="M264.941,685.852h8.174v2.335h-8.174Zm0,0" transform="translate(-245.09 -634.347)"/><path class="a" d="M405.2,685.852h4.671v2.335H405.2Zm0,0" transform="translate(-374.842 -634.347)"/><path class="a" d="M516.227,502.7a17.516,17.516,0,1,0-17.516-17.516A17.516,17.516,0,0,0,516.227,502.7Zm0-32.7a15.18,15.18,0,1,1-15.181,15.18A15.181,15.181,0,0,1,516.227,470Zm0,0" transform="translate(-461.344 -432.508)"/><path class="a" d="M611.61,590.969l-2.09,1.044,2.336,4.671a1.167,1.167,0,0,0,.858.631,1.311,1.311,0,0,0,.181.015,1.17,1.17,0,0,0,.826-.342l14.012-14.013-1.651-1.651-12.868,12.867Zm0,0" transform="translate(-563.85 -537.651)"/></g></svg>