<svg xmlns="http://www.w3.org/2000/svg" width="15.601" height="18" viewBox="0 0 15.601 18"><defs><style>.a{fill:#333;}</style></defs><g transform="translate(0)"><path class="a" d="M43.424,2.908c0-.014,0-.028,0-.042V.462A.45.45,0,0,0,42.98,0h-14.7a.447.447,0,0,0-.448.448V2.866c0,.014-.009.028,0,.042s0,.014,0,.018v.023a.041.041,0,0,0,0,.023.035.035,0,0,1,0,.018.2.2,0,0,1,0,.023s0,.014,0,.018,0,.014.009.023,0,.014.009.018,0,.014.009.018a.035.035,0,0,1,.009.018s.009.014.009.018.009.014.014.018.009.009.009.014a.023.023,0,0,1,.014,0l5.595,6.508v7.865a.446.446,0,0,0,.257.415.47.47,0,0,0,.2.046.459.459,0,0,0,.289-.1l3.294-2.645a.447.447,0,0,0,.163-.36V9.674l5.59-6.508a.015.015,0,0,0,.009,0l.014-.014s.009-.014.014-.018.009-.014.014-.018a121.848,121.848,0,0,0,.019-.037s0-.014.009-.018,0-.014.009-.023a.028.028,0,0,0,0-.018.041.041,0,0,0,0-.023c0-.009,0-.014,0-.018a.2.2,0,0,0,0-.023.2.2,0,0,1,0-.023S43.419,2.912,43.424,2.908ZM36.914,9.2a.478.478,0,0,0-.121.3v5.169l-2.333,1.9V9.5a.478.478,0,0,0-.121-.3L29.29,3.323H41.963Zm5.571-6.8H28.767V.923H42.486Z" transform="translate(-27.828)"/></g></svg>