<svg xmlns="http://www.w3.org/2000/svg" width="77.821" height="70.064" viewBox="0 0 77.821 70.064"><defs><style>.a{fill:#5694e8;}</style></defs><path class="a" d="M7.545,33.062a18,18,0,0,1,25.42,0l4.307,4.307-9.5,9.5a3.42,3.42,0,0,0,0,4.836,8.437,8.437,0,0,0,11.917,0l5.638-5.638,11.289,10.9a1.14,1.14,0,1,0,1.584-1.64L46.1,43.651a1.14,1.14,0,0,0-1.6.014l-6.43,6.43a6.154,6.154,0,0,1-8.693,0,1.141,1.141,0,0,1,0-1.612l9.97-9.97a1.148,1.148,0,0,0,.12-.143l.007,0,.044-.025c.018-.011.037-.021.054-.033l.049-.035c.014-.011.029-.021.043-.032s.052-.045.077-.069l.009-.008h0l5.1-5.1a17.979,17.979,0,0,1,23.273-1.837,1.14,1.14,0,0,0,1.342-1.843A20.259,20.259,0,0,0,43.244,31.45L38.91,35.784,34.577,31.45A20.255,20.255,0,0,0,5.341,59.478a1.14,1.14,0,0,0,1.678-1.544,17.975,17.975,0,0,1,.526-24.872Z" transform="translate(0 -25.518)"/><path class="a" d="M117.751,72.422a1.14,1.14,0,0,0-1.768,1.439A17.977,17.977,0,0,1,114.736,97.9l-4.333,4.333L106.232,98.2a1.14,1.14,0,0,0-1.584,1.64l4.971,4.8,2.842,2.842a3.643,3.643,0,0,1-5.152,5.153h0l-9.644-9.644a1.14,1.14,0,0,0-1.612,1.612l9.645,9.645.005.005,1.273,1.273a3.643,3.643,0,0,1-5.153,5.153l-1.278-1.278-9.386-9.386a1.14,1.14,0,0,0-1.612,1.612l9.386,9.386a3.643,3.643,0,1,1-5.153,5.152L92.5,124.891l-2.439-2.439a1.141,1.141,0,0,0-.225-.173,5.911,5.911,0,0,0-6.36-3.518A5.915,5.915,0,0,0,76.713,112a5.915,5.915,0,0,0-6.761-6.765,6,6,0,0,0,.071-.915,5.923,5.923,0,0,0-10.112-4.188l-2.84,2.84-2.124-2.124a1.14,1.14,0,0,0-1.612,1.612l2.124,2.124-1.3,1.3a5.922,5.922,0,0,0,4.146,10.111,5.923,5.923,0,0,0,7.649,7.649,5.917,5.917,0,0,0,5.922,5.879A5.944,5.944,0,0,0,74,129.12a5.923,5.923,0,0,0,10.108,4.147l.006-.006.006.006a5.921,5.921,0,0,0,10.109-4.142,5.927,5.927,0,0,0,8.045-5.49,5.923,5.923,0,0,0,7.649-7.653,5.92,5.92,0,0,0,4.145-10.109l-2.044-2.044,4.319-4.319a20.256,20.256,0,0,0,1.4-27.09ZM54.709,110.063a3.619,3.619,0,0,1,1.067-2.576l5.748-5.748a3.643,3.643,0,1,1,5.153,5.153l-5.747,5.747h0a3.643,3.643,0,0,1-6.22-2.576Zm6.554,10.619a3.648,3.648,0,0,1,0-5.153l7.026-7.026a3.643,3.643,0,1,1,5.153,5.153l-7.026,7.026A3.648,3.648,0,0,1,61.263,120.682Zm8.043,5.487a3.643,3.643,0,0,1,0-5.153h0l5.747-5.747a3.643,3.643,0,0,1,5.153,5.153l-4.469,4.469h0v0l-1.276,1.276a3.643,3.643,0,0,1-5.153,0Zm8.043,5.487a3.647,3.647,0,0,1,0-5.152l4.471-4.471a3.643,3.643,0,0,1,5.153,5.153l-3.656,3.657h0l-.811.811A3.648,3.648,0,0,1,77.348,131.656Zm13.542,0a3.648,3.648,0,0,1-5.153,0l-.006-.006,2.852-2.852a5.887,5.887,0,0,0,1.61-2.992l.7.7a3.648,3.648,0,0,1,0,5.153Z" transform="translate(-44.46 -64.936)"/></svg>