<svg xmlns="http://www.w3.org/2000/svg" width="44.752" height="40.291" viewBox="0 0 44.752 40.291"><defs><style>.a{fill:#5694e8;}</style></defs><g transform="translate(0 -25.518)"><path class="a" d="M4.339,29.856a10.348,10.348,0,0,1,14.618,0l2.477,2.477L15.969,37.8a1.967,1.967,0,0,0,0,2.781,4.852,4.852,0,0,0,6.853,0l3.242-3.242,6.492,6.27a.656.656,0,0,0,.911-.943l-6.955-6.718a.656.656,0,0,0-.919.008l-3.7,3.7a3.539,3.539,0,0,1-5,0,.656.656,0,0,1,0-.927L22.63,32.99a.66.66,0,0,0,.069-.082l0,0,.025-.014.031-.019.028-.02.025-.018c.015-.012.03-.026.044-.04l.005,0h0L25.8,29.856A10.339,10.339,0,0,1,39.178,28.8a.656.656,0,0,0,.772-1.06,11.65,11.65,0,0,0-15.082,1.189l-2.492,2.492-2.492-2.492A11.648,11.648,0,0,0,3.072,45.047a.656.656,0,0,0,.965-.888,10.337,10.337,0,0,1,.3-14.3Z" transform="translate(0 0)"/><path class="a" d="M89.993,72.243a.656.656,0,1,0-1.017.828,10.338,10.338,0,0,1-.717,13.824l-2.491,2.492-2.4-2.317a.656.656,0,0,0-.911.943l2.859,2.761,1.635,1.635a2.1,2.1,0,0,1-2.963,2.963h0l-5.546-5.546a.656.656,0,0,0-.927.927L83.061,96.3l0,0,.732.732A2.1,2.1,0,1,1,80.833,100l-.735-.735-5.4-5.4a.655.655,0,0,0-.927.927l5.4,5.4a2.1,2.1,0,1,1-2.963,2.963l-.735-.735-1.4-1.4a.656.656,0,0,0-.129-.1,3.4,3.4,0,0,0-3.657-2.023A3.4,3.4,0,0,0,66.394,95a3.4,3.4,0,0,0-3.888-3.89,3.448,3.448,0,0,0,.041-.526,3.406,3.406,0,0,0-5.815-2.409L55.1,89.808l-1.221-1.221a.656.656,0,1,0-.927.927l1.221,1.221-.745.745a3.406,3.406,0,0,0,2.384,5.814,3.406,3.406,0,0,0,4.4,4.4,3.4,3.4,0,0,0,3.406,3.381,3.418,3.418,0,0,0,1.221-.226,3.406,3.406,0,0,0,5.813,2.385l0,0,0,0a3.4,3.4,0,0,0,5.813-2.382,3.408,3.408,0,0,0,4.627-3.157,3.406,3.406,0,0,0,4.4-4.4,3.4,3.4,0,0,0,2.384-5.813L86.7,90.305l2.484-2.484a11.649,11.649,0,0,0,.806-15.579ZM53.74,93.889a2.081,2.081,0,0,1,.614-1.482L57.659,89.1a2.1,2.1,0,1,1,2.963,2.963l-3.3,3.305h0a2.1,2.1,0,0,1-3.577-1.482ZM57.509,100a2.1,2.1,0,0,1,0-2.963l4.04-4.04a2.1,2.1,0,0,1,2.963,2.963L60.472,100A2.1,2.1,0,0,1,57.509,100Zm4.625,3.155a2.1,2.1,0,0,1,0-2.963h0l3.3-3.3A2.1,2.1,0,0,1,68.4,99.846l-2.57,2.57h0l-.734.734a2.095,2.095,0,0,1-2.963,0Zm4.625,3.155a2.1,2.1,0,0,1,0-2.963l2.571-2.571a2.1,2.1,0,0,1,2.963,2.963l-2.1,2.1h0l-.466.466A2.1,2.1,0,0,1,66.759,106.306Zm7.787,0a2.1,2.1,0,0,1-2.963,0l0,0,1.64-1.64a3.386,3.386,0,0,0,.926-1.72l.4.4a2.1,2.1,0,0,1,0,2.963Z" transform="translate(-47.846 -42.421)"/></g></svg>