<svg xmlns="http://www.w3.org/2000/svg" width="18" height="11.613" viewBox="0 0 18 11.613"><defs><style>.a{fill:#5055a0;}.b{fill:#3f3f8f;}.c{fill:#e5646e;}.d{fill:#db4655;}.e{fill:#f2f2f6;}.f{fill:#e1e1e6;}</style></defs><g transform="translate(0 -90.839)"><path class="a" d="M24.594,90.839H18.653l-.581.451H16.33l-.581-.451H9.808L8.5,91.42v10.722H25.064l1.137-.726V98.1l-.466-.581V95.774l.466-.581V91.876Z" transform="translate(-8.201 0)"/><path class="b" d="M15.855,130.32H2.323a1.742,1.742,0,0,1-1.742-1.742v-8.089L0,120.324v3.318l.316.163v2.549L0,126.545v3.318L1.607,130.9H7.548l.581-.4H9.871l.581.4h5.942Z" transform="translate(0 -28.448)"/><path class="c" d="M35.864,90.89l-.714.158L19.073,101.379l1.068.691L36.224,91.676l.138-.416A.58.58,0,0,0,35.864,90.89Z" transform="translate(-18.402 -0.049)"/><path class="d" d="M1.994,384.55l-.885.916a.581.581,0,0,0,.5.369l1.478-.608A1.739,1.739,0,0,1,1.994,384.55Z" transform="translate(-1.07 -283.385)"/><path class="c" d="M4.167,91.355l-.622-.105c-.321,0-.483.307-.483.628v.11l16.706,10.74,1.134-.593Z" transform="translate(-2.954 -0.397)"/><path class="d" d="M457.706,404.645h-1.773l.695.34.739.239a.581.581,0,0,0,.5-.369Z" transform="translate(-439.904 -302.774)"/><path class="d" d="M1.611,90.894a.584.584,0,0,0-.5.369l.542.695V90.915Z" transform="translate(-1.074 -0.053)"/><path class="c" d="M25.96,95.774l-7.839-.29-.29-4.645H16.089l-.29,4.645H8.25v2.323H15.8v4.37h2.323v-4.37l7.839-.29Z" transform="translate(-7.96 0)"/><path class="d" d="M0,225l.581.29v-2.323l-.581.29Z" transform="translate(0 -127.484)"/><path class="d" d="M225,405.226h-1.742l-.29-.581h2.323Z" transform="translate(-215.129 -302.774)"/><path class="e" d="M288.9,280.774h-7.839a.29.29,0,0,0-.29.29v4.065l.274.274.307-.274v-3.253l5.042,3.253,1,.3.073-.3-5.85-3.774h1.071l5.85,3.774.276.109.088-.109v-.456l-5.143-3.318H288.9Z" transform="translate(-270.903 -183.258)"/><path class="e" d="M15.8,280.774H8.541l-.291.29.291.29H13.1l-4.375,2.822-.215.466h.564l5.1-3.288h1.071l-5.639,3.638.08.338.78-.2,5.042-3.253v3.253l.28.27.3-.27v-4.065a.29.29,0,0,0-.29-.29Z" transform="translate(-7.96 -183.258)"/><path class="e" d="M15.508,90.839v3.833L9.567,90.839H8.541l-.044,0,6.749,4.353H14.174L8.541,91.559l-.182.258.182.433L13.1,95.194H8.541l-.291.29.291.29H15.8a.29.29,0,0,0,.29-.29V90.839Z" transform="translate(-7.96 0)"/><path class="f" d="M0,214.71H.581v.581H0Z" transform="translate(0 -119.516)"/><path class="f" d="M.581,101.733l-.541-.349a.581.581,0,0,0-.039.21v.456l.581.375Z" transform="translate(0 -10.174)"/><path class="e" d="M288.9,91.42a.576.576,0,0,0-.04-.209l-6.174,3.983h-1.071l6.747-4.353-.042,0H287.3l-5.942,3.833V90.839h-.581v4.645a.29.29,0,0,0,.29.29H288.9v-.581H283.76l5.143-3.318Z" transform="translate(-270.903 0)"/><g transform="translate(0 97.516)"><path class="f" d="M0,280.774H.581v.581H0Z" transform="translate(0 -280.774)"/><path class="f" d="M1.118,378.036a1.747,1.747,0,0,1-.349-.466l-.769.5v.456a.579.579,0,0,0,.039.21Z" transform="translate(0 -374.167)"/><path class="f" d="M214.71,404.645h.581v.581h-.581Z" transform="translate(-207.162 -400.29)"/><path class="f" d="M280.774,404.645h.581v.581h-.581Z" transform="translate(-270.903 -400.29)"/><path class="f" d="M16.375,401.49l.9-.581h-.184a1.737,1.737,0,0,1-.676-.136l-1.108.715.043,0Z" transform="translate(-14.769 -396.554)"/><path class="f" d="M280.774,404.645h.581v.581h-.581Z" transform="translate(-270.903 -400.29)"/><path class="f" d="M501.96,404.855a.58.58,0,0,0,.039-.21h-.364Z" transform="translate(-483.999 -400.29)"/><path class="f" d="M441.772,404.645H440.7l.9.581h1.026l.043,0Z" transform="translate(-425.208 -400.29)"/></g></g></svg>