<svg xmlns="http://www.w3.org/2000/svg" width="23.901" height="31.377" viewBox="0 0 23.901 31.377"><defs><style>.a{fill:#9597ac;}</style></defs><g transform="translate(-0.418)"><path class="a" d="M.894,17.755a9.463,9.463,0,0,0,1.187.071c3.882,0,7.79-2.177,9.312-3.118L9.5,31.377H15.45L13.574,14.806c1.6,1.082,5.56,3.464,9.5,3.464a6.484,6.484,0,0,0,.766-.03l.252-.02.224-.507-.156-.2c-2.961-3.81-8.983-5.154-10.158-5.386a1.717,1.717,0,0,0-.284-.431c.261-1.17,1.45-7.226-.851-11.47L12.75,0h-.566l-.123.224c-2.294,4.25-1.107,10.3-.85,11.47a1.682,1.682,0,0,0-.252.365c-1.187.181-7.26,1.272-10.38,4.954l-.161.192.2.519ZM14.14,13.023c1.493.333,6.145,1.556,8.827,4.4-3.9-.054-7.955-2.649-9.209-3.524a1.683,1.683,0,0,0,.379-.874Zm-1.66.619a.828.828,0,1,1,.824-.831v0a.828.828,0,0,1-.827.827Zm2.027,16.877H10.452l.107-.961H14.4Zm-3.85-1.8,1.617-14.236a1.548,1.548,0,0,0,.2.02,1.571,1.571,0,0,0,.2-.016L14.3,28.719ZM12.475,1.371c1.521,3.584.776,8.334.47,9.836a1.654,1.654,0,0,0-.952,0c-.289-1.5-1.031-6.248.485-9.85ZM10.809,12.952a1.667,1.667,0,0,0,.346.887c-1.262.8-5.256,3.136-9.088,3.136H1.8C4.6,14.251,9.3,13.222,10.809,12.952Zm0,0" transform="translate(0)"/></g></svg>