<svg xmlns="http://www.w3.org/2000/svg" xmlns:xlink="http://www.w3.org/1999/xlink" width="67.718" height="57.569" viewBox="0 0 67.718 57.569"><defs><style>.a{fill:url(#a);}.b{fill:#55b364;}.c{fill:#fff;}.d{fill:#1d1d1b;}</style><radialGradient id="a" cx="0.5" cy="0.5" r="0.5" gradientTransform="translate(0)" gradientUnits="objectBoundingBox"><stop offset="0" stop-color="#f4c53e" stop-opacity="0.851"/><stop offset="0.22" stop-color="#f4c641" stop-opacity="0.839"/><stop offset="0.36" stop-color="#f5c849" stop-opacity="0.8"/><stop offset="0.49" stop-color="#f5cc57" stop-opacity="0.741"/><stop offset="0.6" stop-color="#f7d26b" stop-opacity="0.651"/><stop offset="0.7" stop-color="#f8da84" stop-opacity="0.541"/><stop offset="0.8" stop-color="#fae4a4" stop-opacity="0.4"/><stop offset="0.89" stop-color="#fcefc9" stop-opacity="0.239"/><stop offset="0.98" stop-color="#fefcf4" stop-opacity="0.051"/><stop offset="1" stop-color="#fff" stop-opacity="0"/></radialGradient></defs><g transform="translate(0 0)"><circle class="a" cx="28.785" cy="28.785" r="28.785" transform="translate(10.148 0)"/><circle class="b" cx="19.532" cy="19.532" r="19.532" transform="translate(0 9.243)"/><path class="c" d="M655.546,298.578c0,.223.022.525.022.711a2.539,2.539,0,0,1-2.715,2.63c-1.142,0-1.922-.554-1.922-1.211v-.628h.06a2.457,2.457,0,0,0,1.758.6c1,0,1.45-.474,1.45-1.276a2.609,2.609,0,0,0,0-.288V298.7a1.417,1.417,0,0,1-1.43.822,2.187,2.187,0,0,1-2.3-2.234,2.683,2.683,0,0,1,2.815-2.829,2.226,2.226,0,0,1,2.261,2.426v.945A6.382,6.382,0,0,0,655.546,298.578Zm-3.68-1.47a1.142,1.142,0,0,0,1.1,1.256,1.237,1.237,0,0,0,1.182-1.4c0-.885-.433-1.285-1.039-1.285A1.307,1.307,0,0,0,651.866,297.108Z" transform="translate(-640.165 -268.491)"/><path class="c" d="M682.406,296.162a1.99,1.99,0,0,0-.8-.163c-.617,0-.956.337-.956,1.182v3.186h-.38c-.617,0-1.008-.308-1.008-.894v-2.536a1.96,1.96,0,0,1,2.047-2.167c.854,0,1.151.483,1.151.894v.5Z" transform="translate(-662.523 -268.731)"/><path class="c" d="M698.154,297.937h-.894a1.445,1.445,0,0,0,1.564,1.139,2.509,2.509,0,0,0,1.7-.523h.022v.431c0,.708-.483,1.253-2.011,1.253a2.9,2.9,0,0,1-.011-5.8,2.142,2.142,0,0,1,2.221,2.149C700.766,297.606,699.984,297.937,698.154,297.937Zm.257-2.344a1.186,1.186,0,0,0-1.162,1.182v.183h.612c1.3,0,1.6-.143,1.6-.534C699.459,295.87,699.048,295.593,698.411,295.593Z" transform="translate(-675.373 -268.475)"/><path class="c" d="M723.906,297.937H723a1.444,1.444,0,0,0,1.564,1.139,2.512,2.512,0,0,0,1.7-.523h.051v.431c0,.708-.483,1.253-2.011,1.253a2.9,2.9,0,0,1-.011-5.8,2.144,2.144,0,0,1,2.221,2.149C726.5,297.606,725.732,297.937,723.906,297.937Zm.257-2.344A1.186,1.186,0,0,0,723,296.775v.183h.617c1.307,0,1.6-.143,1.6-.534-.016-.554-.422-.831-1.064-.831Z" transform="translate(-695.385 -268.475)"/><path class="c" d="M752.871,300.115a.915.915,0,0,1-1.008-.894v-2.2c0-.936-.411-1.341-1.117-1.341-.6,0-1.008.447-1.008,1.245v3.206h-.411a.894.894,0,0,1-.967-.894v-2.424a2.443,2.443,0,0,1,4.884.072v3.229Z" transform="translate(-716.184 -268.475)"/><path class="d" d="M787.788,300.269h-.277c-1.316,0-2.221-.74-2.221-1.756s.72-1.738,2.755-1.738h.483V296.7c0-.782-.369-1.019-1.191-1.019a2.208,2.208,0,0,0-1.758.639h-.051v-.447c0-.617.554-1.356,2.011-1.356a2.16,2.16,0,0,1,2.344,2.487v1.274A1.947,1.947,0,0,1,787.788,300.269Zm.751-2.514h-.494c-1.048,0-1.341.246-1.341.7s.351.688.956.688.894-.288.894-.854Z" transform="translate(-744.862 -268.537)"/><path class="d" d="M811.342,289.762a.963.963,0,0,1,.648-.382h.319v1.256h1.922v.565a.733.733,0,0,1-.822.657h-1.1v2.169c0,.719.317,1,.874,1a1.981,1.981,0,0,0,1-.194h.051v.5c0,.565-.411.927-1.213.927a1.853,1.853,0,0,1-2.076-2.058v-3.338A1.378,1.378,0,0,1,811.342,289.762Z" transform="translate(-764.778 -264.546)"/><path class="d" d="M831.349,294.164a1.566,1.566,0,0,1-1.758-1.727V286.71h.391a.871.871,0,0,1,.985.925V292.3c0,.556.288.731.936.731h.371v.3C832.274,293.925,831.954,294.164,831.349,294.164Z" transform="translate(-779.264 -262.472)"/><path class="d" d="M845.748,300.269h-.277c-1.316,0-2.221-.74-2.221-1.756s.719-1.738,2.755-1.738h.483V296.7c0-.782-.371-1.019-1.191-1.019a2.228,2.228,0,0,0-1.758.639h-.051v-.447c0-.617.554-1.356,2.011-1.356a2.159,2.159,0,0,1,2.342,2.487v1.274A1.94,1.94,0,0,1,845.748,300.269Zm.751-2.514H846c-1.048,0-1.34.246-1.34.7s.351.688.956.688.894-.288.894-.854Z" transform="translate(-789.872 -268.537)"/><path class="d" d="M869.4,300.238c-1.019,0-1.787-.525-1.787-1.09v-.626h.051a2.764,2.764,0,0,0,1.665.523c.657,0,1.008-.194,1.008-.606,0-.32-.2-.474-1.151-.606-1.173-.165-1.738-.628-1.738-1.47a2.115,2.115,0,0,1,2.355-1.924c1.254,0,1.767.648,1.767,1.182v.525h-.051a2.421,2.421,0,0,0-1.584-.514c-.842,0-1.117.257-1.117.617,0,.277.163.391,1.117.545,1.153.185,1.77.688,1.77,1.564C871.715,299.539,870.893,300.238,869.4,300.238Z" transform="translate(-808.665 -268.475)"/><path class="b" d="M812.9,345.157a.538.538,0,1,1,.538-.536.538.538,0,0,1-.538.536Z" transform="translate(-765.884 -307.024)"/><path class="b" d="M821.208,335.6h-.55a.874.874,0,0,0,.945.695,1.533,1.533,0,0,0,1.032-.32h.031v.261c0,.431-.295.764-1.22.764a1.767,1.767,0,0,1-.007-3.528,1.3,1.3,0,0,1,1.352,1.307C822.792,335.4,822.323,335.6,821.208,335.6Zm.156-1.428a.722.722,0,0,0-.706.719v.114h.375c.8,0,.976-.087.976-.326-.007-.344-.257-.514-.646-.514Z" transform="translate(-771.653 -298.789)"/><path class="b" d="M837,337h-.168c-.8,0-1.341-.447-1.341-1.07s.447-1.057,1.676-1.057h.295v-.045c0-.476-.223-.619-.726-.619a1.334,1.334,0,0,0-1.07.387h-.031v-.268c0-.375.337-.827,1.227-.827a1.315,1.315,0,0,1,1.425,1.515v.775A1.2,1.2,0,0,1,837,337Zm.447-1.528h-.3c-.637,0-.82.152-.82.427s.223.418.583.418.538-.174.538-.518Z" transform="translate(-783.846 -298.808)"/><path class="b" d="M852.858,334.491a1.222,1.222,0,0,0-.487-.1c-.375,0-.583.208-.583.719v1.939h-.223c-.375,0-.615-.188-.615-.536V334.96a1.2,1.2,0,0,1,1.245-1.32c.521,0,.7.295.7.552v.3Z" transform="translate(-795.852 -298.917)"/><path class="b" d="M862.142,330.623a.6.6,0,0,1,.4-.223h.192v.762H863.9v.344a.447.447,0,0,1-.5.4h-.67v1.307c0,.447.194.608.532.608a1.206,1.206,0,0,0,.608-.118h.031v.3c0,.344-.25.563-.737.563a1.127,1.127,0,0,1-1.265-1.251v-2.022A.845.845,0,0,1,862.142,330.623Z" transform="translate(-804.352 -296.4)"/><path class="b" d="M875.9,333.244a.518.518,0,0,1-.57-.563V331.3c0-.55-.3-.769-.67-.769-.261,0-.606.2-.606.793v1.915h-.275a.512.512,0,0,1-.576-.563V328.74h.261a.518.518,0,0,1,.594.538v.963a.961.961,0,0,1,.733-.447,1.3,1.3,0,0,1,1.383,1.477v1.975Z" transform="translate(-813.128 -295.111)"/></g></svg>